<svg width="26" height="26" viewBox="0 0 26 26" fill="none" xmlns="http://www.w3.org/2000/svg">
<path d="M19.767 17.1994C18.9176 16.3608 17.8571 16.3608 17.0131 17.1994C16.3693 17.8378 15.7255 18.4763 15.0925 19.1255C14.9193 19.304 14.7732 19.3419 14.5622 19.2229C14.1456 18.9956 13.702 18.8117 13.3016 18.5628C11.4351 17.3888 9.87146 15.8793 8.48641 14.1804C7.7993 13.3364 7.18793 12.4329 6.76051 11.4157C6.67394 11.2101 6.69018 11.0749 6.8579 10.9072C7.50173 10.285 8.12933 9.64656 8.76234 9.00813C9.64423 8.12084 9.64423 7.08205 8.75693 6.18934C8.25377 5.68077 7.7506 5.18301 7.24744 4.67444C6.72805 4.15505 6.21406 3.63024 5.68926 3.11626C4.83983 2.28847 3.7794 2.28847 2.93539 3.12167C2.28615 3.76009 1.66396 4.41474 1.00389 5.04234C0.392523 5.62125 0.0841327 6.33001 0.0192084 7.15779C-0.0835883 8.50497 0.246443 9.7764 0.711734 11.0154C1.66396 13.5799 3.11393 15.8576 4.8723 17.946C7.24744 20.7702 10.0825 23.0047 13.399 24.617C14.8923 25.342 16.4396 25.8993 18.1223 25.9912C19.2801 26.0562 20.2864 25.764 21.0925 24.8605C21.6444 24.2437 22.2666 23.681 22.8509 23.0913C23.7166 22.2148 23.722 21.1544 22.8617 20.2887C21.8338 19.2553 20.8004 18.2274 19.767 17.1994Z" fill="#09081D"/>
<path d="M18.7336 12.8874L20.73 12.5465C20.4162 10.7124 19.5506 9.05143 18.2358 7.7313C16.8454 6.34084 15.087 5.46437 13.1501 5.19385L12.8688 7.20109C14.3674 7.41209 15.7309 8.08839 16.8075 9.16505C17.8247 10.1822 18.4901 11.4699 18.7336 12.8874Z" fill="#09081D"/>
<path d="M21.8554 4.20926C19.5506 1.90445 16.6344 0.449059 13.4152 0L13.1339 2.00724C15.9148 2.39679 18.4361 3.6574 20.4271 5.643C22.3153 7.53121 23.5543 9.91718 24.0033 12.5412L25.9997 12.2004C25.4749 9.15973 24.0412 6.40045 21.8554 4.20926Z" fill="#09081D"/>
</svg>
