<svg width="26" height="32" viewBox="0 0 26 32" fill="none" xmlns="http://www.w3.org/2000/svg">
<path d="M13 0.166732C11.3263 0.12894 9.66222 0.430746 8.10835 1.05393C6.55447 1.67711 5.14301 2.60874 3.95919 3.79256C2.77536 4.97639 1.84373 6.38785 1.22055 7.94172C0.597372 9.49559 0.295566 11.1596 0.333358 12.8334C0.333358 21.8188 12.0104 31.2634 12.5092 31.6592C12.648 31.7719 12.8213 31.8334 13 31.8334C13.1788 31.8334 13.3521 31.7719 13.4909 31.6592C13.9896 31.2634 25.6667 21.8188 25.6667 12.8334C25.7045 11.1596 25.4027 9.49559 24.7795 7.94172C24.1563 6.38785 23.2247 4.97639 22.0409 3.79256C20.857 2.60874 19.4456 1.67711 17.8917 1.05393C16.3378 0.430746 14.6738 0.12894 13 0.166732ZM7.06252 11.6221C7.06252 10.4478 7.41075 9.29987 8.06317 8.32345C8.71559 7.34703 9.64291 6.58601 10.7278 6.13661C11.8128 5.68722 13.0066 5.56964 14.1584 5.79874C15.3101 6.02784 16.3681 6.59333 17.1985 7.4237C18.0288 8.25408 18.5943 9.31204 18.8234 10.4638C19.0525 11.6156 18.935 12.8094 18.4856 13.8943C18.0362 14.9793 17.2751 15.9066 16.2987 16.559C15.3223 17.2114 14.1744 17.5596 13 17.5596C11.4259 17.5577 9.91679 16.9315 8.80371 15.8185C7.69063 14.7054 7.06445 13.1963 7.06252 11.6221Z" fill="#09081D"/>
</svg>
