<svg width="36" height="40" viewBox="0 0 36 40" fill="none" xmlns="http://www.w3.org/2000/svg">
<path d="M13.1566 0.75C11.7175 0.75 10.5316 1.93589 10.5316 3.375V7.75H7.03161C5.25707 7.75 4.0004 9.23621 3.81359 10.874L0.956173 35.9277C0.742314 37.8027 2.39964 39.25 4.17419 39.25H18.1349C18.3669 39.25 18.5895 39.1578 18.7536 38.9937C18.9177 38.8296 19.0099 38.6071 19.0099 38.375C19.0099 38.1429 18.9177 37.9204 18.7536 37.7563C18.5895 37.5922 18.3669 37.5 18.1349 37.5H4.17419C3.34639 37.5 2.61315 36.8366 2.69421 36.126L5.55163 11.0723C5.65974 10.1245 6.20381 9.5 7.03161 9.5H10.5316V14.0391C9.51895 14.4043 8.78161 15.3685 8.78161 16.5C8.78161 17.9394 9.96723 19.125 11.4066 19.125C12.846 19.125 14.0316 17.9394 14.0316 16.5C14.0316 15.3679 13.2951 14.4021 12.2816 14.0374V9.5H19.2816V14.0391C18.269 14.4043 17.5316 15.3685 17.5316 16.5C17.5316 17.9394 18.7172 19.125 20.1566 19.125C21.596 19.125 22.7816 17.9394 22.7816 16.5C22.7816 15.3679 22.0451 14.4021 21.0316 14.0374V9.5H24.5316C25.3594 9.5 25.9018 10.1245 26.0099 11.0723L26.9515 19.3284C26.9645 19.4426 26.9998 19.5532 27.0556 19.6538C27.1113 19.7544 27.1863 19.843 27.2763 19.9146C27.3663 19.9862 27.4695 20.0393 27.58 20.071C27.6906 20.1026 27.8063 20.1122 27.9205 20.0991C28.0348 20.0862 28.1454 20.0508 28.246 19.9951C28.3466 19.9394 28.4352 19.8644 28.5068 19.7744C28.5783 19.6844 28.6315 19.5812 28.6631 19.4706C28.6948 19.3601 28.7044 19.2444 28.6913 19.1301L27.7496 10.874C27.5628 9.23621 26.3062 7.75 24.5316 7.75H21.0316V3.375C21.0316 1.93589 19.8457 0.75 18.4066 0.75H13.1566ZM13.1566 2.5H18.4066C18.9065 2.5 19.2816 2.87512 19.2816 3.375V7.75H12.2816V3.375C12.2816 2.87512 12.6567 2.5 13.1566 2.5ZM11.4066 15.625C11.9002 15.625 12.2816 16.0064 12.2816 16.5C12.2816 16.9936 11.9002 17.375 11.4066 17.375C10.913 17.375 10.5316 16.9936 10.5316 16.5C10.5316 16.0064 10.913 15.625 11.4066 15.625ZM20.1566 15.625C20.6502 15.625 21.0316 16.0064 21.0316 16.5C21.0316 16.9936 20.6502 17.375 20.1566 17.375C19.663 17.375 19.2816 16.9936 19.2816 16.5C19.2816 16.0064 19.663 15.625 20.1566 15.625Z" fill="white"/>
<path d="M26.2908 21.7056C21.4566 21.7056 17.5186 25.6436 17.5186 30.4778C17.5186 35.312 21.4566 39.25 26.2908 39.25C31.125 39.25 35.063 35.312 35.063 30.4778C35.063 25.6436 31.125 21.7056 26.2908 21.7056ZM26.2908 23.4556C30.1792 23.4556 33.313 26.5893 33.313 30.4778C33.313 34.3662 30.1792 37.5 26.2908 37.5C22.4023 37.5 19.2686 34.3662 19.2686 30.4778C19.2686 26.5893 22.4023 23.4556 26.2908 23.4556Z" fill="white"/>
<path d="M29.1259 27.3914L25.7147 31.7049L23.3922 29.3533C23.0522 29.0086 22.497 29.0056 22.1532 29.3465C21.8097 29.6863 21.8067 30.2402 22.1462 30.5838L25.166 33.6377C25.5352 34.0106 26.1472 33.977 26.4734 33.566L30.4997 28.4766C30.7993 28.0976 30.735 27.5476 30.3562 27.2478C29.9724 26.9535 29.4283 26.991 29.1259 27.3914Z" fill="white"/>
</svg>
