<svg width="59" height="51" viewBox="0 0 59 51" fill="none" xmlns="http://www.w3.org/2000/svg">
<path d="M29.4994 12.36C26.6118 12.36 23.7891 13.2163 21.3881 14.8205C18.9871 16.4248 17.1158 18.705 16.0108 21.3728C14.9057 24.0406 14.6166 26.9762 15.18 29.8083C15.7433 32.6404 17.1338 35.2419 19.1757 37.2837C21.2175 39.3256 23.819 40.7161 26.6511 41.2794C29.4832 41.8428 32.4188 41.5537 35.0866 40.4486C37.7544 39.3436 40.0346 37.4723 41.6389 35.0713C43.2431 32.6704 44.0994 29.8476 44.0994 26.96C44.0994 23.0878 42.5612 19.3743 39.8232 16.6362C37.0851 13.8982 33.3716 12.36 29.4994 12.36ZM29.4994 38.64C27.1893 38.64 24.9311 37.955 23.0104 36.6715C21.0896 35.3881 19.5925 33.564 18.7085 31.4297C17.8245 29.2955 17.5932 26.947 18.0438 24.6813C18.4945 22.4156 19.6069 20.3345 21.2404 18.701C22.8739 17.0675 24.9551 15.9551 27.2208 15.5044C29.4865 15.0537 31.8349 15.285 33.9692 16.1691C36.1034 17.0531 37.9276 18.5502 39.211 20.4709C40.4944 22.3917 41.1794 24.6499 41.1794 26.96C41.1794 30.0577 39.9489 33.0286 37.7584 35.219C35.568 37.4094 32.5972 38.64 29.4994 38.64Z" fill="black" fill-opacity="0.2"/>
<path d="M48.4798 6.51999H42.085L40.8732 4.09639C40.3178 3.10314 39.5181 2.26806 38.5498 1.67022C37.5815 1.07238 36.4766 0.731545 35.3398 0.679993H23.6598C22.523 0.731545 21.4181 1.07238 20.4498 1.67022C19.4815 2.26806 18.6818 3.10314 18.1264 4.09639L16.9146 6.51999H10.5198C7.80929 6.51999 5.20979 7.59674 3.29317 9.51336C1.37655 11.43 0.299805 14.0295 0.299805 16.74V40.1C0.299805 42.8105 1.37655 45.41 3.29317 47.3266C5.20979 49.2432 7.80929 50.32 10.5198 50.32H48.4798C51.1903 50.32 53.7898 49.2432 55.7064 47.3266C57.6231 45.41 58.6998 42.8105 58.6998 40.1V16.74C58.6998 14.0295 57.6231 11.43 55.7064 9.51336C53.7898 7.59674 51.1903 6.51999 48.4798 6.51999ZM55.7798 40.1C55.7798 42.0361 55.0107 43.8929 53.6417 45.2619C52.2727 46.6309 50.4159 47.4 48.4798 47.4H10.5198C8.58372 47.4 6.72694 46.6309 5.35792 45.2619C3.98891 43.8929 3.2198 42.0361 3.2198 40.1V16.74C3.2198 14.8039 3.98891 12.9471 5.35792 11.5781C6.72694 10.2091 8.58372 9.43999 10.5198 9.43999H17.8198C18.0894 9.43918 18.3535 9.36372 18.5829 9.22198C18.8122 9.08025 18.9979 8.87777 19.1192 8.63699L20.7398 5.41039C21.0463 4.8971 21.4714 4.46481 21.9795 4.1498C22.4875 3.83478 23.0638 3.64624 23.6598 3.59999H35.3398C35.9358 3.64624 36.5121 3.83478 37.0201 4.1498C37.5282 4.46481 37.9533 4.8971 38.2598 5.41039L39.8804 8.63699C40.0017 8.87777 40.1874 9.08025 40.4167 9.22198C40.6461 9.36372 40.9102 9.43918 41.1798 9.43999H48.4798C50.4159 9.43999 52.2727 10.2091 53.6417 11.5781C55.0107 12.9471 55.7798 14.8039 55.7798 16.74V40.1Z" fill="black" fill-opacity="0.2"/>
</svg>
