<svg width="34" height="34" viewBox="0 0 34 34" fill="none" xmlns="http://www.w3.org/2000/svg">
<path d="M6.58065 31.2581C6.58065 31.5609 6.3351 31.8065 6.03226 31.8065C5.72941 31.8065 5.48387 31.5609 5.48387 31.2581C5.48387 30.9552 5.72941 30.7097 6.03226 30.7097C6.3351 30.7097 6.58065 30.9552 6.58065 31.2581ZM18.0968 30.7097C17.7939 30.7097 17.5484 30.9552 17.5484 31.2581C17.5484 31.5609 17.7939 31.8065 18.0968 31.8065C18.3996 31.8065 18.6452 31.5609 18.6452 31.2581C18.6452 30.9552 18.3996 30.7097 18.0968 30.7097ZM16.1277 23.1079L16.5744 24.597V26.871C16.5744 28.3829 15.3444 29.6129 13.8324 29.6129H11.0004C9.48854 29.6129 8.2585 28.3829 8.2585 26.871V25.0782L8.54264 24.4322L9.33629 22.8449C9.61679 22.2839 10.1807 21.9355 10.8078 21.9355H14.5519C15.284 21.9355 15.9173 22.4066 16.1277 23.1079ZM14.5519 23.0323H14.1742L13.9914 24.129H15.289L15.0772 23.4231C15.007 23.1893 14.796 23.0323 14.5519 23.0323ZM10.3172 23.3354L9.92039 24.129H12.8795L13.0623 23.0323H10.8077C10.5987 23.0323 10.4107 23.1484 10.3172 23.3354ZM11.0004 28.5161H12.1484L12.6967 25.2258H9.3914L9.35528 25.3081V26.871C9.35528 27.7781 10.0933 28.5161 11.0004 28.5161ZM15.4776 26.871V25.2258H13.8087L13.2603 28.5161H13.8324C14.7395 28.5161 15.4776 27.7781 15.4776 26.871ZM34 2.74194V26.871C34 28.3829 32.77 29.6129 31.2581 29.6129H24.129V30.1613C24.129 31.0684 23.391 31.8065 22.4839 31.8065H20.7835C20.5288 33.0564 19.4209 34 18.0968 34C16.7726 34 15.6647 33.0564 15.41 31.8065H8.71901C8.46429 33.0564 7.35641 34 6.03226 34C4.70811 34 3.60023 33.0564 3.3455 31.8065H2.40523C1.07895 31.8065 0 30.7275 0 29.4012C0 29.1118 0.0514798 28.8277 0.153137 28.5567L0.879476 26.6199C1.43808 25.13 2.88253 24.129 4.47374 24.129H6.24174L7.3743 21.8639C8.02873 20.555 9.34438 19.7419 10.8078 19.7419H13.1613V2.74194C13.1613 1.23003 14.3913 0 15.9032 0H31.2581C32.77 0 34 1.23003 34 2.74194ZM2.0365 26.7122C2.25449 26.8163 2.4929 26.871 2.74194 26.871C3.64849 26.871 4.38614 26.1339 4.38703 25.2275C3.39219 25.2594 2.48885 25.8371 2.0365 26.7122ZM7.67742 31.2581C7.67742 30.351 6.93936 29.6129 6.03226 29.6129C5.12516 29.6129 4.3871 30.351 4.3871 31.2581C4.3871 32.1652 5.12516 32.9032 6.03226 32.9032C6.93936 32.9032 7.67742 32.1652 7.67742 31.2581ZM19.7419 31.2581C19.7419 30.351 19.0039 29.6129 18.0968 29.6129C17.1897 29.6129 16.4516 30.351 16.4516 31.2581C16.4516 32.1652 17.1897 32.9032 18.0968 32.9032C19.0039 32.9032 19.7419 32.1652 19.7419 31.2581ZM23.0323 28.2419C23.0323 27.1836 22.1712 26.3226 21.1129 26.3226H18.2372L17.1782 22.7928C16.8275 21.624 15.7722 20.8387 14.5519 20.8387H10.8078C9.76246 20.8387 8.82273 21.4195 8.35529 22.3545L6.91955 25.2258H5.48387C5.48387 26.7377 4.25384 27.9677 2.74194 27.9677C2.35834 27.9677 1.9805 27.8861 1.63344 27.7328L1.18006 28.9418C1.12474 29.0892 1.09677 29.2438 1.09677 29.4012C1.09677 30.1228 1.68375 30.7097 2.40523 30.7097H3.3455C3.60023 29.4597 4.70811 28.5161 6.03226 28.5161C7.35641 28.5161 8.46429 29.4597 8.71901 30.7097H15.41C15.6647 29.4597 16.7726 28.5161 18.0968 28.5161C19.4209 28.5161 20.5288 29.4597 20.7835 30.7097H22.4839C22.7862 30.7097 23.0323 30.4637 23.0323 30.1613V28.2419ZM16.4516 16.7728L21.1599 12.0645L16.4516 7.3562V16.7728ZM16.4516 20.239C16.6442 20.3482 16.8266 20.474 16.997 20.6146L24.129 13.4826L30.7097 20.0632V17.2272L26.6439 13.1613L30.7097 9.09541V6.25936L25.2258 11.7432L18.9664 5.48387H16.4516V5.80509L22.711 12.0645L16.4516 18.3239V20.239ZM30.7097 21.9355V21.6143L24.129 15.0336L17.7338 21.4288C17.8412 21.5888 17.9372 21.7579 18.0207 21.9355H30.7097ZM30.7097 10.6465L28.1949 13.1613L30.7097 15.6761V10.6465ZM25.2258 10.1923L29.9341 5.48387H20.5175L25.2258 10.1923ZM23.4378 26.3226H24.6774C24.9798 26.3226 25.2258 26.0766 25.2258 25.7742C25.2258 25.4718 24.9798 25.2258 24.6774 25.2258H22.4839C22.331 25.2258 22.1927 25.289 22.0932 25.3903C22.6234 25.573 23.0874 25.899 23.4378 26.3226ZM32.9032 2.74194C32.9032 1.83483 32.1652 1.09677 31.2581 1.09677H15.9032C14.9961 1.09677 14.2581 1.83483 14.2581 2.74194V19.7419H14.5519C14.8266 19.7419 15.0952 19.7707 15.3548 19.8252V5.48387C15.3548 4.87914 15.8469 4.3871 16.4516 4.3871H30.7097C31.3144 4.3871 31.8065 4.87914 31.8065 5.48387V21.9355C31.8065 22.5402 31.3144 23.0323 30.7097 23.0323H18.3951L19.0532 25.2258H20.933C21.1594 24.5876 21.769 24.129 22.4839 24.129H24.6774C25.5845 24.129 26.3226 24.8671 26.3226 25.7742C26.3226 26.6813 25.5845 27.4194 24.6774 27.4194H24.0141C24.0884 27.6811 24.129 27.9568 24.129 28.2419V28.5161H31.2581C32.1652 28.5161 32.9032 27.7781 32.9032 26.871V2.74194ZM22.4839 2.19355C22.181 2.19355 21.9355 2.43909 21.9355 2.74194C21.9355 3.04478 22.181 3.29032 22.4839 3.29032C22.7867 3.29032 23.0323 3.04478 23.0323 2.74194C23.0323 2.43909 22.7867 2.19355 22.4839 2.19355ZM24.6774 2.19355C24.3746 2.19355 24.129 2.43909 24.129 2.74194C24.129 3.04478 24.3746 3.29032 24.6774 3.29032C24.9803 3.29032 25.2258 3.04478 25.2258 2.74194C25.2258 2.43909 24.9803 2.19355 24.6774 2.19355ZM0.722569 10.7326C0.249859 9.90545 0 8.96455 0 8.01187V7.67742C0 4.65361 2.46006 2.19355 5.48387 2.19355C8.50768 2.19355 10.9677 4.65361 10.9677 7.67742V8.01187C10.9677 8.96455 10.7179 9.90545 10.2452 10.7326L6.78046 16.7959C6.51525 17.2601 6.01841 17.5484 5.48387 17.5484C4.94933 17.5484 4.45249 17.2601 4.18721 16.7959L0.722569 10.7326ZM1.09677 8.01187C1.09677 8.77406 1.29666 9.52679 1.67477 10.1886L5.13948 16.2518C5.20995 16.375 5.34191 16.4516 5.48387 16.4516C5.62583 16.4516 5.75779 16.375 5.82819 16.2518L9.29297 10.1886C9.67108 9.52679 9.87097 8.77406 9.87097 8.01187V7.67742C9.87097 5.25835 7.90294 3.29032 5.48387 3.29032C3.0648 3.29032 1.09677 5.25835 1.09677 7.67742V8.01187ZM2.19355 7.67742C2.19355 5.86308 3.6696 4.3871 5.48387 4.3871C7.29814 4.3871 8.77419 5.86308 8.77419 7.67742C8.77419 9.49176 7.29814 10.9677 5.48387 10.9677C3.6696 10.9677 2.19355 9.49176 2.19355 7.67742ZM3.29032 7.67742C3.29032 8.88696 4.27433 9.87097 5.48387 9.87097C6.69341 9.87097 7.67742 8.88696 7.67742 7.67742C7.67742 6.46788 6.69341 5.48387 5.48387 5.48387C4.27433 5.48387 3.29032 6.46788 3.29032 7.67742Z" fill="white"/>
</svg>
