<svg width="34" height="34" viewBox="0 0 34 34" fill="none" xmlns="http://www.w3.org/2000/svg">
<g clip-path="url(#clip0_318_20520)">
<path d="M3.64361 0H19.4293C21.4412 0 23.0722 1.63096 23.0722 3.64285V10.9286C23.0722 11.5992 22.5285 12.1429 21.8579 12.1429C21.1872 12.1429 20.6436 11.5992 20.6436 10.9286V3.64285C20.6436 2.9722 20.0999 2.42855 19.4293 2.42855H3.64354C2.97289 2.42855 2.42923 2.9722 2.42923 3.64285V30.3571C2.42923 31.0278 2.97289 31.5715 3.64354 31.5715H19.4293C20.1 31.5715 20.6436 31.0278 20.6436 30.3571V23.0714C20.6436 22.4008 21.1873 21.8571 21.858 21.8571C22.5286 21.8571 23.0723 22.4008 23.0723 23.0714V30.3571C23.0723 32.369 21.4413 34 19.4294 34H3.64368C1.63179 34 0.000831604 32.369 0.000831604 30.3571V3.64285C0.000759125 1.63096 1.63172 0 3.64361 0Z" fill="white"/>
<path d="M9.71481 15.7857H29.8549L25.8562 11.7871C25.3903 11.3047 25.4037 10.536 25.8861 10.0701C26.3567 9.61564 27.1027 9.61564 27.5732 10.0701L33.6447 16.1415C33.7574 16.2543 33.8466 16.3884 33.9069 16.5361C34.0297 16.8332 34.0297 17.1668 33.9069 17.4639C33.8463 17.6121 33.7567 17.7466 33.6435 17.8597L27.5721 23.9311C27.1062 24.4135 26.3375 24.4269 25.8551 23.961C25.3727 23.4951 25.3593 22.7264 25.8252 22.244C25.8349 22.2339 25.8449 22.224 25.8551 22.2142L29.8549 18.2143H9.71474C9.04408 18.2143 8.50043 17.6706 8.50043 17C8.50043 16.3293 9.04415 15.7857 9.71481 15.7857Z" fill="white"/>
</g>
<defs>
<clipPath id="clip0_318_20520">
<rect width="34" height="34" fill="white" transform="matrix(-1 0 0 1 34 0)"/>
</clipPath>
</defs>
</svg>
