<svg width="202" height="546" viewBox="0 0 202 546" fill="none" xmlns="http://www.w3.org/2000/svg">
<path d="M200.996 545.072L200.996 0.92804L1.00381 0.928031L1.00379 545.072L200.996 545.072Z" fill="white" stroke="black" stroke-width="1.5" stroke-miterlimit="10" stroke-linecap="square"/>
<path d="M111.801 544.837C115.321 539.108 118.855 533.23 122.281 527.377C132.414 510.054 126.779 440.475 121.318 373.148C115.348 299.449 109.646 229.809 122.402 218.214C126.016 214.898 129.536 213.463 133.11 213.797C142.171 214.651 149.171 226.851 156.559 239.782C164.349 253.394 172.407 267.45 182.164 266.114C195.508 264.27 182.418 165.18 147.123 1.01466L148.863 0.841429C158.54 45.5856 171.791 110.326 180.37 164.573C196.325 265.359 185.965 266.782 182.566 267.277C171.363 268.824 163.399 254.903 154.967 240.215C148.087 228.188 140.966 215.752 132.922 214.997C129.991 214.713 127.006 215.999 123.807 218.932C111.493 230.18 117.383 302.827 123.085 373.074C128.545 440.525 134.207 510.276 123.914 527.823C120.475 533.676 116.954 539.566 113.421 545.295L111.801 544.837Z" fill="black"/>
<path d="M56.1084 181.563C56.0121 169.363 60.2852 157.477 68.2616 147.757C76.7386 137.268 89.151 130.087 103.062 127.625C127.047 123.529 103.824 51.3889 91.3768 12.6337C90.0384 8.40186 88.7668 4.50407 87.6961 1.05174L89.4093 0.804259C90.4934 4.24421 91.7382 8.12963 93.1034 12.3739C106.488 54.2844 129.095 124.42 103.543 128.8C90.0578 131.204 78.0291 138.176 69.8143 148.351C56.5368 164.536 54.2346 185.844 63.5101 206.843C72.1164 226.332 83.0917 275.073 90.8414 328.107C99.5815 388.01 101.91 436.664 97.1991 461.597C90.9619 494.759 73.7627 528.256 64.0589 545.27L62.426 544.824C72.0896 527.86 89.1951 494.463 95.4591 461.449C105.551 407.845 79.759 247.8 61.8237 207.164C58.1408 199.054 56.1997 190.359 56.1084 181.563Z" fill="black"/>
<path d="M6.31779 180.536C6.3178 139.504 32.2705 131.114 51.9324 124.754C60.8465 121.871 68.5427 119.384 72.3305 114.533C83.346 100.439 36.6205 31.6278 8.08456 1.26212L9.57024 0.59393C38.3069 31.2194 85.1931 100.65 73.8831 115.078C69.8677 120.275 61.837 122.848 52.682 125.818C29.2456 133.403 0.0805831 142.832 10.0387 201.732C22.4194 275.011 55.3187 469.665 10.3599 545.27L8.727 544.8C53.5118 469.492 20.6527 275.048 8.28532 201.881C7.03475 194.823 6.37694 187.687 6.31779 180.536Z" fill="black"/>
<path d="M158.915 336.843C158.915 323.814 160.883 316.315 165.875 315.313C176.717 313.135 183.396 317.627 190.476 322.378C193.904 324.837 197.585 326.98 201.465 328.776L200.528 329.803C196.541 327.973 192.761 325.78 189.245 323.257C182.258 318.555 176.222 314.496 166.357 316.476C156.118 318.542 161.646 361.604 167.508 407.202C173.17 451.278 179.554 501.243 175.137 533.242C174.589 537.19 173.799 541.199 172.929 545.171L171.189 544.973C172.099 541.038 172.835 537.041 173.384 533.131C177.801 501.231 171.403 451.339 165.741 407.313C161.847 376.786 158.915 352.657 158.915 336.843Z" fill="black"/>
</svg>
