<svg width="310" height="160" viewBox="0 0 310 160" fill="none" xmlns="http://www.w3.org/2000/svg">
<path d="M247.843 88.8694C231.788 91.48 220.886 106.635 223.492 122.718C226.098 138.801 241.225 149.723 257.28 147.112C273.335 144.502 284.237 129.347 281.631 113.264C279.025 97.1804 263.897 86.2587 247.843 88.8694Z" fill="white" stroke="black" stroke-width="1.5" stroke-linecap="square" stroke-linejoin="round"/>
<path d="M211.588 116.497L214.546 116.497L214.546 117.985C214.546 128.085 218.551 137.771 225.68 144.912C232.809 152.054 242.478 156.066 252.56 156.066C262.641 156.066 272.31 152.054 279.439 144.912C286.568 137.771 290.573 128.085 290.573 117.985L290.573 116.497L293.531 116.497L293.531 117.985C293.531 128.87 289.215 139.31 281.531 147.008C273.847 154.705 263.426 159.03 252.56 159.03C241.693 159.03 231.272 154.705 223.588 147.008C215.905 139.31 211.588 128.87 211.588 117.985L211.588 116.497Z" fill="white" stroke="black" stroke-width="1.5" stroke-linecap="square" stroke-linejoin="round"/>
<path d="M252.56 115.759C251.333 115.759 250.338 116.755 250.338 117.985C250.338 119.214 251.333 120.21 252.56 120.21C253.787 120.21 254.781 119.214 254.781 117.985C254.781 116.755 253.787 115.759 252.56 115.759Z" fill="black"/>
<path d="M149.919 88.6284C133.816 91.2354 122.873 106.426 125.475 122.556C128.077 138.687 143.24 149.651 159.343 147.044C175.445 144.437 186.388 129.246 183.786 113.116C181.184 96.9847 166.021 86.0214 149.919 88.6284Z" fill="white" stroke="black" stroke-width="1.50427" stroke-linecap="square" stroke-linejoin="round"/>
<path d="M114.105 116.497L117.063 116.497L117.063 117.985C117.063 128.085 121.068 137.771 128.197 144.912C135.326 152.054 144.995 156.066 155.077 156.066C165.159 156.066 174.828 152.054 181.957 144.912C189.086 137.771 193.091 128.085 193.091 117.985L193.091 116.497L196.049 116.497L196.049 117.985C196.049 128.87 191.732 139.31 184.049 147.008C176.365 154.705 165.944 159.03 155.077 159.03C144.211 159.03 133.789 154.705 126.106 147.008C118.422 139.31 114.105 128.87 114.105 117.985L114.105 116.497Z" fill="white" stroke="black" stroke-width="1.5" stroke-linecap="square" stroke-linejoin="round"/>
<path d="M155.077 115.759C153.85 115.759 152.855 116.755 152.855 117.985C152.855 119.214 153.85 120.21 155.077 120.21C156.304 120.21 157.299 119.214 157.299 117.985C157.299 116.755 156.304 115.759 155.077 115.759Z" fill="black"/>
<path d="M52.8789 88.8751C36.8243 91.4858 25.922 106.64 28.5281 122.724C31.1341 138.807 46.2616 149.729 62.3162 147.118C78.3709 144.507 89.2731 129.353 86.6671 113.269C84.0611 97.1861 68.9336 86.2644 52.8789 88.8751Z" fill="white" stroke="black" stroke-width="1.5" stroke-linecap="square" stroke-linejoin="round"/>
<path d="M16.6231 116.497L19.581 116.497L19.581 117.985C19.581 128.085 23.586 137.771 30.715 144.912C37.8439 152.054 47.5129 156.066 57.5947 156.066C67.6766 156.066 77.3456 152.054 84.4745 144.912C91.6035 137.771 95.6085 128.085 95.6085 117.985L95.6085 116.497L98.5664 116.497L98.5664 117.985C98.5664 128.87 94.2498 139.31 86.5661 147.008C78.8824 154.705 68.4611 159.03 57.5947 159.03C46.7284 159.03 36.3071 154.705 28.6234 147.008C20.9397 139.31 16.6231 128.87 16.6231 117.985L16.6231 116.497Z" fill="white" stroke="black" stroke-width="1.5" stroke-linecap="square" stroke-linejoin="round"/>
<path d="M57.5947 115.759C56.3677 115.759 55.3731 116.755 55.3731 117.985C55.3731 119.214 56.3677 120.21 57.5947 120.21C58.8217 120.21 59.8164 119.214 59.8164 117.985C59.8164 116.755 58.8217 115.759 57.5947 115.759Z" fill="black"/>
<path d="M5.96875 79.3336L304.031 79.3336C306.793 79.3336 309.031 77.095 309.031 74.3336L309.031 5.98345C309.031 3.22203 306.793 0.983452 304.031 0.983451L5.96876 0.983425C3.20734 0.983425 0.968757 3.22201 0.968756 5.98343L0.96875 74.3336C0.96875 77.095 3.20734 79.3336 5.96875 79.3336Z" fill="white" stroke="black" stroke-width="1.5" stroke-miterlimit="10" stroke-linecap="square"/>
<path d="M1.09799 44.3834C4.34009 45.7679 7.67258 47.1525 10.9793 48.4982C20.7701 52.4578 60.1789 50.258 98.2959 48.11C140.03 45.7679 179.451 43.5423 186 48.537C187.886 50.0122 188.713 51.3061 188.519 52.7554C188.028 56.3009 181.118 59.0441 173.807 61.9426C166.057 64.9964 158.152 68.1537 158.901 71.9709C159.947 77.1856 216.044 72.0097 308.98 58.2548L309.083 58.9406C283.741 62.6931 247.083 67.882 216.367 71.2592C159.301 77.4962 158.501 73.4461 158.242 72.1133C157.364 67.7137 165.243 64.5953 173.561 61.2956C180.381 58.6042 187.421 55.8092 187.847 52.6648C188.002 51.5132 187.266 50.3486 185.613 49.0934C179.245 44.2669 138.118 46.5055 98.3476 48.8088C60.1659 50.9438 20.6667 53.1565 10.7338 49.1323C7.41425 47.8383 4.09467 46.402 0.839663 45.0174L1.09799 44.3834Z" fill="black"/>
<path d="M206.77 22.5799C213.454 22.4865 220.048 24.1269 225.912 27.3417C231.918 30.7578 235.974 35.5973 237.305 40.9802C239.617 50.3356 280.459 41.2649 302.405 36.3866L308.953 34.9373L309.108 35.6102L302.56 37.0724C278.819 42.3518 239.113 51.1767 236.685 41.1614C235.393 35.9855 231.518 31.2754 225.615 27.9499C216.457 22.774 204.393 21.8423 192.51 25.4784C181.466 28.8556 153.876 33.1516 123.832 36.1925C89.9255 39.6086 62.3742 40.5273 48.2563 38.6769C29.4884 36.2313 10.5267 29.4897 0.890901 25.7371L1.13629 25.0902C10.7463 28.8815 29.6563 35.5972 48.3467 38.0299C78.6363 41.9377 169.208 31.8318 192.251 24.8055C196.955 23.3501 201.847 22.6001 206.77 22.5799Z" fill="black"/>
<path d="M207.338 3.06678C230.588 3.06678 235.328 13.2245 238.932 20.9366C240.56 24.4174 241.968 27.4064 244.706 28.9204C252.688 33.1905 291.619 14.9325 308.85 3.76553L309.225 4.34782C291.916 15.5925 252.572 33.9669 244.383 29.5286C241.438 27.937 239.991 24.8314 238.299 21.2212C234.011 12.047 228.663 0.621161 195.325 4.51602C153.837 9.36842 43.6321 22.2564 0.826296 4.64541L1.09757 3.99842C43.7226 21.5447 153.798 8.66968 195.248 3.83022C199.26 3.34055 203.297 3.08564 207.338 3.06678Z" fill="black"/>
<path d="M118.833 62.8484C126.209 62.8484 130.458 63.6118 131.014 65.5657C132.305 69.8229 129.722 72.4367 127.01 75.2058C125.655 76.5095 124.442 77.9539 123.393 79.5148L122.812 79.1525C123.905 77.5451 125.17 76.0613 126.583 74.7271C129.244 71.9838 131.543 69.6288 130.458 65.7598C129.373 61.8908 104.909 63.9224 79.1016 66.2127C54.1466 68.4254 25.8591 70.9487 7.73702 69.2018C5.50244 68.9818 3.2291 68.6971 0.981599 68.3348L1.09786 67.662C3.33244 68.0113 5.59284 68.296 7.80159 68.516C25.8849 70.2499 54.1079 67.7396 79.037 65.5269C96.242 63.9871 109.869 62.8484 118.833 62.8484Z" fill="black"/>
</svg>
