<svg width="165" height="196" viewBox="0 0 165 196" fill="none" xmlns="http://www.w3.org/2000/svg">
<path d="M94.4997 6.60001L97.2097 28.49H97.2997L94.4997 6.60001ZM141.67 4.87001L141.24 4.78001L140.6 4.67001C132.936 3.18648 125.163 2.34025 117.36 2.14001H116.94C108.985 2.3038 101.059 3.15024 93.2497 4.67001L92.6097 4.78001L92.1797 4.87001V5.40001V5.83001L94.2897 22.83V22.9L94.8097 26.9L95.1697 29.81L95.2397 30.35H95.6497H96.1797L97.7697 30.49L99.1597 30.63H99.8097C100.13 30.63 100.47 30.63 100.81 30.71C101.018 30.7416 101.229 30.7583 101.44 30.76L102.72 30.86C104.52 30.99 106.53 31.1 108.72 31.21C109.23 31.21 109.72 31.27 110.33 31.27L111.96 31.33C112.51 31.33 113.07 31.38 113.61 31.38C114.72 31.38 115.81 31.38 116.91 31.38C118.01 31.38 119.09 31.38 120.21 31.38C120.74 31.38 121.3 31.38 121.84 31.33L123.49 31.27C124.02 31.27 124.56 31.27 125.09 31.21C127.75 31.08 130.24 30.93 132.32 30.78L133.11 30.71L137.61 30.33L138.12 30.27H138.55L138.62 29.82L138.96 27.01L139.46 23.01V23L141.58 5.84001L141.64 5.39001L141.67 4.87001ZM138.37 23.36L137.62 29.36C137.54 29.3471 137.459 29.3471 137.38 29.36H137.11H136.91H136.42L139.35 6.60001L138.86 6.52001C131.626 5.18318 124.295 4.43739 116.94 4.29001H116.08C109.005 4.4767 101.957 5.22236 94.9997 6.52001L94.4897 6.60001L97.1997 28.49H97.2897L97.8097 28.42L98.2497 28.36L98.1897 27.91L95.6997 7.48001C102.429 6.25253 109.242 5.54377 116.08 5.36001H116.94C124.065 5.49648 131.168 6.20543 138.18 7.48001L135.32 29.58C134.71 29.64 133.98 29.71 133.16 29.75H133.06H132.7H132.28H131.84H131.45H131.15C130.15 29.84 129.07 29.9 127.93 29.96L124.39 30.16L121.15 30.27H119.96C118.96 30.27 117.96 30.27 116.96 30.27C116.33 30.27 115.71 30.27 115.09 30.27C114.7 30.27 114.32 30.27 113.93 30.27H113.64C112.52 30.27 111.4 30.2 110.31 30.16H109.5C109.24 30.16 108.96 30.16 108.7 30.16C108.17 30.16 107.63 30.16 107.12 30.08H106.6L105.6 30.01H105.42L104.09 30C103.63 30 103.18 29.94 102.73 29.89H102.49H102.28H102C101.8 29.89 101.61 29.89 101.44 29.84C101.39 29.8288 101.339 29.8288 101.29 29.84H101.1C101.007 29.8305 100.913 29.8305 100.82 29.84C100.757 29.8325 100.693 29.8325 100.63 29.84L99.8297 29.78C99.3597 29.73 98.9297 29.69 98.5397 29.67C98.3297 29.67 98.1597 29.67 97.9897 29.67L97.4497 29.6H97.0497H96.9997H96.7597C96.5697 29.6 96.3997 29.6 96.2697 29.55L95.4997 23.34V23L93.3197 5.72001C100.967 4.24766 108.724 3.41147 116.51 3.22001H116.94C124.87 3.39031 132.772 4.23334 140.56 5.74001L138.39 23.25L138.37 23.36ZM94.4997 6.60001L97.2097 28.49H97.2997L94.4997 6.60001ZM94.4997 6.60001L97.2097 28.49H97.2997L94.4997 6.60001Z" fill="black"/>
<path d="M116.93 2.67999C108.799 2.85107 100.699 3.72769 92.7197 5.29999L95.7197 29.86L97.8497 30.06C97.8803 29.9644 97.9171 29.8709 97.9597 29.78L95.0897 6.99999C102.022 5.72416 109.043 4.9853 116.09 4.78999H116.93C124.258 4.93258 131.562 5.67169 138.77 6.99999L135.85 29.73C135.892 29.8268 135.925 29.9272 135.95 30.03L138.1 29.83L141.1 5.26999C133.133 3.71007 125.046 2.84349 116.93 2.67999Z" fill="white"/>
<path d="M140.6 3.66998V4.66998C132.936 3.18645 125.163 2.34022 117.36 2.13998H116.94C108.985 2.30377 101.06 3.15021 93.25 4.66998V3.66998C101.056 2.1227 108.983 1.26274 116.94 1.09998C125.4 1.06998 138.11 3.21998 140.6 3.66998Z" fill="white"/>
<path d="M141.67 2.77L141.24 2.68C141.11 2.68 126.41 0 116.94 0C108.766 0.170912 100.624 1.06777 92.6097 2.68L92.1797 2.77V4.87V5.4V5.83L94.2897 22.83V22.9L94.8097 26.9L95.1697 29.81L95.2397 30.35H95.6497H96.1797L97.7697 30.49L99.1597 30.63H99.8097C100.13 30.63 100.47 30.63 100.81 30.71C101.018 30.7415 101.229 30.7583 101.44 30.76L102.72 30.86C104.52 30.99 106.53 31.1 108.72 31.21C109.23 31.21 109.72 31.27 110.33 31.27L111.96 31.33C112.51 31.33 113.07 31.38 113.61 31.38C114.72 31.38 115.81 31.38 116.91 31.38C118.01 31.38 119.09 31.38 120.21 31.38C120.74 31.38 121.3 31.38 121.84 31.33L123.49 31.27C124.02 31.27 124.56 31.27 125.09 31.21C127.75 31.08 130.24 30.93 132.32 30.78L133.11 30.71L137.61 30.33L138.12 30.27H138.55L138.62 29.82L138.96 27.01L139.46 23.01V23L141.58 5.84L141.64 5.39V5.25L141.67 2.77ZM93.2497 4.67V3.67C101.056 2.12272 108.983 1.26276 116.94 1.1C125.4 1.1 138.11 3.25 140.6 3.7V4.7C132.936 3.21714 125.163 2.37092 117.36 2.17H116.94C108.986 2.32389 101.06 3.1603 93.2497 4.67ZM133.16 29.75H133.06H132.7H132.28H131.84H131.45H131.15C130.15 29.84 129.07 29.9 127.93 29.96L124.39 30.16L121.15 30.27H119.96C118.96 30.27 117.96 30.27 116.96 30.27C116.33 30.27 115.71 30.27 115.09 30.27C114.7 30.27 114.32 30.27 113.93 30.27H113.64C112.52 30.27 111.4 30.2 110.31 30.16H109.5C109.24 30.16 108.96 30.16 108.7 30.16C108.17 30.16 107.63 30.16 107.12 30.08H106.6L105.6 30.01H105.42L104.09 30C103.63 30 103.18 29.94 102.73 29.89H102.49H102.28H102C101.8 29.89 101.61 29.89 101.44 29.84H101.1C101.007 29.8304 100.913 29.8304 100.82 29.84C100.757 29.8325 100.693 29.8325 100.63 29.84L99.8297 29.78C99.3597 29.73 98.9297 29.69 98.5397 29.67L98.3297 28.02L95.6997 7.48C102.429 6.25251 109.242 5.54376 116.08 5.36H116.94C124.065 5.49646 131.168 6.20541 138.18 7.48L135.32 29.58C134.71 29.64 134 29.71 133.16 29.75ZM138.39 23.25V23.36L137.64 29.36C137.56 29.3471 137.479 29.3471 137.4 29.36H137.13H136.93H136.44L139.35 6.6L138.86 6.52C131.626 5.18317 124.295 4.43737 116.94 4.29H116.08C109.005 4.47669 101.957 5.22234 94.9997 6.52L94.4897 6.6L97.2897 28.49L97.4197 29.49H97.0197H96.9997H96.7597C96.5697 29.49 96.3997 29.49 96.2697 29.44L95.4997 23.23V23L93.3197 5.72C100.967 4.24765 108.724 3.41145 116.51 3.22H116.94C124.87 3.3903 132.772 4.23332 140.56 5.74L138.39 23.25Z" fill="black"/>
<path d="M139.101 37.27L138.161 30.39L138.091 29.86C138.091 29.86 133.741 30.33 128.021 30.65C126.301 30.76 124.481 30.84 122.591 30.91C120.701 30.98 118.801 31.02 116.941 31.02C106.941 31.02 95.7605 29.86 95.7605 29.86L95.7005 30.39L94.7705 37.27C94.2783 40.9161 94.0278 44.5908 94.0205 48.27V74C94.0205 74.84 96.6005 75.57 100.731 76.12C106.111 76.7442 111.524 77.0381 116.941 77C129.581 77 139.831 75.65 139.831 74V48.31C139.822 44.6182 139.578 40.9308 139.101 37.27ZM139.291 73.97C138.731 74.97 130.501 76.46 116.941 76.46C103.381 76.46 95.0005 75 94.5605 74V48.31C94.5643 44.6307 94.8149 40.9558 95.3105 37.31L96.2305 30.41L97.8205 30.56L99.2105 30.69H99.8505C100.171 30.69 100.521 30.69 100.851 30.77C101.056 30.8011 101.263 30.8178 101.471 30.82L102.761 30.92C104.561 31.05 106.571 31.16 108.761 31.27C109.271 31.27 109.761 31.33 110.371 31.33L112.001 31.4C112.551 31.4 113.111 31.4 113.651 31.4C114.761 31.4 115.851 31.4 116.951 31.4C118.051 31.4 119.131 31.4 120.251 31.4C120.781 31.4 121.341 31.4 121.881 31.4L123.531 31.33C124.061 31.33 124.601 31.33 125.131 31.27C127.791 31.14 130.281 30.99 132.361 30.84L133.151 30.77L137.651 30.39L138.571 37.27C139.054 40.9167 139.298 44.5913 139.301 48.27L139.291 73.97Z" fill="white"/>
<path d="M139.62 37.19L138.62 29.9V29.79C138.598 29.6754 138.541 29.5704 138.457 29.4897C138.373 29.409 138.265 29.3567 138.15 29.34H138.04H137.61C137.53 29.3271 137.449 29.3271 137.37 29.34H137.1H136.9H136.41C136.232 29.3472 136.055 29.3639 135.88 29.39H135.32C134.71 29.45 133.98 29.52 133.16 29.56H133.1H132.7H132.28H131.84H131.38H131.15C130.15 29.65 129.07 29.71 127.93 29.77L124.39 29.97L121.15 30.08H119.96C118.96 30.08 117.96 30.08 116.96 30.08C116.33 30.08 115.71 30.08 115.09 30.08C114.7 30.08 114.32 30.08 113.93 30.08H113.64C112.52 30.08 111.4 30.01 110.31 29.97H109.5C109.24 29.97 108.96 29.97 108.7 29.97C108.17 29.97 107.63 29.97 107.12 29.89H106.6L105.6 29.82L102.77 29.63H102.53H102.25H102C101.8 29.63 101.61 29.63 101.44 29.58C101.39 29.5688 101.339 29.5688 101.29 29.58H101.1C101.007 29.5704 100.913 29.5704 100.82 29.58C100.757 29.5724 100.693 29.5724 100.63 29.58L99.8298 29.52C99.3598 29.47 98.9298 29.43 98.5398 29.41C98.3298 29.41 98.1598 29.41 97.9898 29.41L97.4498 29.34H97.0498H96.9998H96.7598C96.5698 29.34 96.3998 29.34 96.2698 29.29H95.8698C95.8271 29.2794 95.7824 29.2794 95.7398 29.29C95.6214 29.3016 95.5101 29.3521 95.4233 29.4334C95.3365 29.5148 95.279 29.6226 95.2598 29.74L94.2598 37.12C93.7658 40.8062 93.5153 44.5209 93.5098 48.24V74C93.5098 77.49 115.99 77.54 116.96 77.54C117.93 77.54 140.39 77.54 140.39 74V48.31C140.378 44.5904 140.12 40.8757 139.62 37.19ZM139.29 74C138.74 75 130.5 76.48 116.94 76.48C103.38 76.48 94.9998 75 94.5598 74V48.31C94.5586 44.6305 94.8092 40.9553 95.3098 37.31L96.2298 30.41L97.8198 30.55L99.2098 30.69H99.8598C100.18 30.69 100.52 30.69 100.86 30.77C101.068 30.8015 101.279 30.8182 101.49 30.82L102.77 30.92C104.57 31.05 106.58 31.16 108.77 31.27C109.28 31.27 109.77 31.33 110.38 31.33L112.01 31.39C112.56 31.39 113.12 31.44 113.66 31.44C114.77 31.44 115.86 31.44 116.96 31.44C118.06 31.44 119.14 31.44 120.26 31.44C120.79 31.44 121.35 31.44 121.89 31.39L123.54 31.33C124.07 31.33 124.61 31.33 125.14 31.27C127.8 31.14 130.29 30.99 132.37 30.84L133.16 30.77L137.66 30.39L138.58 37.27C139.059 40.9172 139.303 44.5915 139.31 48.27L139.29 74Z" fill="black"/>
<path d="M139.291 48.31V74C138.731 75 130.501 76.49 116.941 76.49C103.381 76.49 95.0005 75 94.5605 74V48.31C94.5644 44.6307 94.8149 40.9558 95.3105 37.31L96.2306 30.41L97.8205 30.56L99.2105 30.69H99.8505C100.171 30.69 100.521 30.69 100.851 30.77C101.056 30.8012 101.263 30.8179 101.471 30.82L102.761 30.92C104.561 31.05 106.571 31.16 108.761 31.27C109.271 31.27 109.761 31.33 110.371 31.33L112.001 31.4C112.551 31.4 113.111 31.4 113.651 31.4C114.761 31.4 115.851 31.4 116.951 31.4C118.051 31.4 119.131 31.4 120.251 31.4C120.781 31.4 121.341 31.4 121.881 31.4L123.531 31.33C124.061 31.33 124.601 31.33 125.131 31.27C127.791 31.14 130.281 30.99 132.361 30.84L133.151 30.77L137.651 30.39L138.571 37.27C139.053 40.9302 139.293 44.6182 139.291 48.31Z" fill="white"/>
<path d="M28.0002 6.60001L30.7002 28.49H30.7802L28.0002 6.60001ZM75.1502 4.87001L74.7202 4.78001L74.0802 4.67001C66.4166 3.18648 58.6434 2.34025 50.8402 2.14001H50.4202C42.4656 2.3038 34.5399 3.15024 26.7302 4.67001L26.0902 4.78001L25.6602 4.87001V5.40001V5.83001L27.7702 22.83V22.9L28.2902 26.9L28.6502 29.81L28.7202 30.35H29.1302H29.6602L31.2502 30.49L32.6402 30.63H33.2902C33.6102 30.63 33.9502 30.63 34.2902 30.71C34.4987 30.7416 34.7092 30.7583 34.9202 30.76L36.2002 30.86C38.0002 30.99 40.0202 31.1 42.2002 31.21C42.7102 31.21 43.2502 31.27 43.8102 31.27L45.4402 31.33C45.9902 31.33 46.5502 31.38 47.0902 31.38C48.2002 31.38 49.2902 31.38 50.3902 31.38C51.4902 31.38 52.5702 31.38 53.6902 31.38C54.2202 31.38 54.7802 31.38 55.3202 31.33L57.0002 31.4C57.5302 31.4 58.0702 31.4 58.6002 31.34C61.2702 31.21 63.7502 31.06 65.8302 30.91L66.6202 30.84L71.1202 30.46L71.6402 30.4H72.0702L72.1302 29.95L72.4702 27.14L72.9702 23.14V23L75.0902 5.85001L75.1502 5.40001V4.87001ZM71.8502 23.36L71.1002 29.36C71.0241 29.3466 70.9462 29.3466 70.8702 29.36H70.5902H70.3902H69.9002L72.8402 6.60001L72.3402 6.52001C65.1061 5.18318 57.7752 4.43739 50.4202 4.29001H49.5602C42.4891 4.47785 35.4439 5.2235 28.4902 6.52001L28.0002 6.60001L30.7002 28.49H30.7802L31.3002 28.42L31.7402 28.36L31.6802 27.91L29.1802 7.48001C35.9093 6.25311 42.7226 5.54436 49.5602 5.36001H50.4202C57.5455 5.49648 64.6484 6.20543 71.6602 7.48001L68.8102 29.58C68.1902 29.64 67.4602 29.71 66.6402 29.75H66.5402H66.1802H65.7602H65.3202H64.9302H64.6302C63.6302 29.84 62.5502 29.9 61.4102 29.96L57.8802 30.16L54.6302 30.27H53.4402C52.4402 30.27 51.4402 30.27 50.4402 30.27C49.8202 30.27 49.1902 30.27 48.5702 30.27C48.1902 30.27 47.8002 30.27 47.4202 30.27H47.1202C46.0002 30.27 44.8802 30.2 43.7902 30.16H42.9802C42.7202 30.16 42.4402 30.16 42.1902 30.16C41.6502 30.16 41.1102 30.16 40.6002 30.08H40.0802L39.0802 30.01H38.9002L37.5802 30C37.1102 30 36.6602 29.94 36.2102 29.89H35.9702H35.7602H35.4602C35.2702 29.89 35.0702 29.89 34.9002 29.84C34.8508 29.8288 34.7995 29.8288 34.7502 29.84H34.5602C34.4671 29.8305 34.3732 29.8305 34.2802 29.84C34.217 29.8325 34.1533 29.8325 34.0902 29.84L33.2902 29.78C32.8202 29.73 32.3902 29.69 32.0102 29.67C31.7902 29.67 31.6202 29.67 31.4502 29.67L30.9102 29.6H30.5102H30.4402H30.2002C30.0102 29.6 29.8402 29.6 29.7102 29.55L28.9402 23.34V23L26.8002 5.72001C34.4511 4.24711 42.211 3.41092 50.0002 3.22001H50.4302C58.3439 3.39313 66.2287 4.23615 74.0002 5.74001L71.8702 23.25L71.8502 23.36ZM28.0002 6.60001L30.7002 28.49H30.7802L28.0002 6.60001ZM28.0002 6.60001L30.7002 28.49H30.7802L28.0002 6.60001Z" fill="black"/>
<path d="M50.4102 2.67999C42.2796 2.85107 34.1792 3.72769 26.2002 5.29999L29.2002 29.86L31.3302 30.06C31.3608 29.9644 31.3975 29.8709 31.4402 29.78L28.5702 6.99999C35.5029 5.72416 42.5238 4.9853 49.5702 4.78999H50.4102C57.7381 4.93205 65.0423 5.67116 72.2502 6.99999L69.3302 29.77C69.3725 29.8668 69.4059 29.9672 69.4302 30.07L71.5802 29.87L74.5802 5.30999C66.6147 3.73663 58.5277 2.85667 50.4102 2.67999Z" fill="white"/>
<path d="M74.0805 3.67001V4.67001C66.4202 3.18698 58.6504 2.34075 50.8505 2.14001H50.4205C42.4659 2.30379 34.5402 3.15023 26.7305 4.67001V3.67001C34.536 2.11265 42.463 1.24265 50.4205 1.07001C58.8805 1.07001 71.5905 3.22001 74.0805 3.67001Z" fill="white"/>
<path d="M75.1502 2.77L74.7202 2.68C74.5902 2.66 59.8902 0 50.4202 0C42.2468 0.170912 34.1048 1.06777 26.0902 2.68L25.6602 2.77V4.87V5.4V5.83L27.7702 22.83V22.9L28.2902 26.9L28.6502 29.81L28.7202 30.35H29.1302H29.6602L31.2502 30.49L32.6402 30.63H33.2902C33.6102 30.63 33.9502 30.63 34.2902 30.71C34.4987 30.7415 34.7092 30.7583 34.9202 30.76L36.2002 30.86C38.0002 30.99 40.0202 31.1 42.2002 31.21C42.7102 31.21 43.2502 31.27 43.8102 31.27L45.4402 31.33C45.9902 31.33 46.5502 31.38 47.0902 31.38C48.2002 31.38 49.2902 31.38 50.3902 31.38C51.4902 31.38 52.5702 31.38 53.6902 31.38C54.2202 31.38 54.7802 31.38 55.3202 31.33L57.0002 31.4C57.5302 31.4 58.0702 31.4 58.6002 31.34C61.2702 31.21 63.7502 31.06 65.8302 30.91L66.6202 30.84L71.1202 30.46L71.6402 30.4H72.0702L72.1302 29.95L72.4702 27.14L72.9702 23.14V23L75.0902 5.85L75.1502 5.4V5.25V2.77ZM26.7302 4.67V3.67C34.5357 2.11264 42.4627 1.24264 50.4202 1.07C58.8802 1.07 71.5902 3.22 74.0802 3.67V4.67C66.4165 3.18714 58.6433 2.34092 50.8402 2.14H50.4202C42.4656 2.30378 34.5399 3.15023 26.7302 4.67ZM66.6402 29.75H66.5402H66.1802H65.7602H65.3202H64.9302H64.6302C63.6302 29.84 62.5502 29.9 61.4102 29.96L57.8802 30.16L54.6302 30.27H53.4402C52.4402 30.27 51.4402 30.27 50.4402 30.27C49.8202 30.27 49.1902 30.27 48.5702 30.27C48.1902 30.27 47.8002 30.27 47.4202 30.27H47.1202C46.0002 30.27 44.8802 30.2 43.7902 30.16H42.9802C42.7202 30.16 42.4402 30.16 42.1902 30.16C41.6502 30.16 41.1102 30.16 40.6002 30.08H40.0802L39.0802 30.01H38.9002L37.5802 30C37.1102 30 36.6602 29.94 36.2102 29.89H35.9702H35.7602H35.4602C35.2702 29.89 35.0702 29.89 34.9002 29.84H34.5602C34.4671 29.8304 34.3732 29.8304 34.2802 29.84C34.217 29.8325 34.1533 29.8325 34.0902 29.84L33.2902 29.78C32.8202 29.73 32.3902 29.69 32.0102 29.67L31.7902 28.02L29.1802 7.48C35.9093 6.2531 42.7226 5.54435 49.5602 5.36H50.4202C57.5455 5.49646 64.6484 6.20541 71.6602 7.48L68.8102 29.58C68.1902 29.64 67.4602 29.71 66.6402 29.75ZM71.8702 23.25V23.36L71.1202 29.36C71.0441 29.3465 70.9662 29.3465 70.8902 29.36H70.6102H70.4102H69.9202L72.8402 6.6L72.3402 6.52C65.1061 5.18317 57.7752 4.43737 50.4202 4.29H49.5602C42.4891 4.47784 35.4439 5.22348 28.4902 6.52L28.0002 6.6L30.8002 28.49L30.9302 29.49H30.5302H30.4602H30.2202C30.0302 29.49 29.8602 29.49 29.7302 29.44L28.9602 23.23V23L26.8002 5.72C34.4511 4.2471 42.211 3.4109 50.0002 3.22H50.4302C58.3439 3.39312 66.2287 4.23613 74.0002 5.74L71.8702 23.25Z" fill="black"/>
<path d="M72.58 37.27L71.64 30.39L71.57 29.86C71.57 29.86 67.22 30.33 61.5 30.65C59.78 30.76 57.96 30.84 56.08 30.91C54.2 30.98 52.28 31.02 50.42 31.02C40.42 31.02 29.24 29.86 29.24 29.86L29.18 30.39L28.26 37.27C27.7596 40.9154 27.5057 44.5904 27.5 48.27V74C27.5 74.84 30.08 75.57 34.21 76.12C39.5903 76.7442 45.0038 77.0381 50.42 77C63.06 77 73.31 75.65 73.31 74V48.31C73.3011 44.6182 73.0573 40.9308 72.58 37.27ZM72.77 74C72.22 75 63.99 76.49 50.42 76.49C36.85 76.49 28.51 75 28 74V48.31C28.0038 44.6307 28.2544 40.9558 28.75 37.31L29.67 30.41L31.26 30.56L32.65 30.69H33.29C33.62 30.69 33.96 30.69 34.29 30.77C34.4952 30.8011 34.7024 30.8178 34.91 30.82L36.2 30.92C38 31.05 40.02 31.16 42.2 31.27C42.71 31.27 43.25 31.33 43.81 31.33L45.44 31.4C45.99 31.4 46.55 31.4 47.09 31.4C48.2 31.4 49.29 31.4 50.39 31.4C51.49 31.4 52.57 31.4 53.69 31.4C54.22 31.4 54.78 31.4 55.32 31.4H57C57.53 31.4 58.07 31.4 58.61 31.34C61.26 31.21 63.75 31.06 65.83 30.91L66.62 30.84L71.12 30.46L72 37.34C72.4839 40.9867 72.7278 44.6613 72.73 48.34L72.77 74Z" fill="white"/>
<path d="M73.1 37.19L72.1 29.9V29.79C72.0797 29.6747 72.0232 29.569 71.9387 29.488C71.8542 29.4071 71.746 29.3552 71.63 29.34H71.52H71.09C71.0139 29.3265 70.9361 29.3265 70.86 29.34H70.58H70.38H69.89C69.7126 29.3477 69.5357 29.3643 69.36 29.39H68.81C68.19 29.45 67.46 29.52 66.64 29.56H66.58H66.18H65.76H65.32H64.87H64.63C63.63 29.65 62.55 29.71 61.41 29.77L57.88 29.97L54.63 30.08H53.44C52.44 30.08 51.44 30.08 50.44 30.08C49.82 30.08 49.19 30.08 48.57 30.08C48.19 30.08 47.8 30.08 47.42 30.08H47.12C46 30.08 44.88 30.01 43.79 29.97H42.98C42.72 29.97 42.44 29.97 42.19 29.97C41.65 29.97 41.11 29.97 40.6 29.89H40.08L39.08 29.82L36.25 29.63H36.01H35.73H35.5C35.31 29.63 35.11 29.63 34.94 29.58C34.8906 29.5688 34.8394 29.5688 34.79 29.58H34.6C34.5069 29.5704 34.4131 29.5704 34.32 29.58C34.2569 29.5724 34.1931 29.5724 34.13 29.58L33.33 29.52C32.86 29.47 32.43 29.43 32.05 29.41C31.83 29.41 31.66 29.41 31.49 29.41L30.95 29.34H30.55H30.48H30.24C30.05 29.34 29.88 29.34 29.75 29.29H29.35C29.3073 29.2794 29.2627 29.2794 29.22 29.29C29.1016 29.3016 28.9904 29.3521 28.9036 29.4334C28.8168 29.5148 28.7593 29.6226 28.74 29.74L27.74 37.12C27.2463 40.8295 26.9991 44.5677 27 48.31V74C27 77.49 49.48 77.54 50.45 77.54C51.42 77.54 73.88 77.54 73.88 74V48.31C73.8646 44.5902 73.604 40.8755 73.1 37.19ZM72.77 74C72.22 75 63.98 76.48 50.42 76.48C36.86 76.48 28.51 75 28 74V48.31C28.0038 44.6307 28.2544 40.9558 28.75 37.31L29.67 30.41L31.26 30.55L32.65 30.69H33.3C33.62 30.69 33.96 30.69 34.3 30.77C34.5086 30.8015 34.7191 30.8182 34.93 30.82L36.21 30.92C38.01 31.05 40.03 31.16 42.21 31.27C42.72 31.27 43.26 31.33 43.82 31.33L45.45 31.39C46 31.39 46.56 31.44 47.1 31.44C48.21 31.44 49.3 31.44 50.4 31.44C51.5 31.44 52.58 31.44 53.7 31.44C54.23 31.44 54.79 31.44 55.33 31.39L57 31.4C57.53 31.4 58.07 31.4 58.6 31.34C61.27 31.21 63.75 31.06 65.83 30.91L66.62 30.84L71.12 30.46L72 37.34C72.4839 40.9867 72.7278 44.6613 72.73 48.34L72.77 74Z" fill="black"/>
<path d="M72.77 48.31V74C72.22 75 63.99 76.49 50.42 76.49C36.85 76.49 28.51 75 28 74V48.31C28.0038 44.6307 28.2544 40.9558 28.75 37.31L29.67 30.41L31.26 30.56L32.65 30.69H33.29C33.62 30.69 33.96 30.69 34.29 30.77C34.4952 30.8011 34.7024 30.8178 34.91 30.82L36.2 30.92C38 31.05 40.02 31.16 42.2 31.27C42.71 31.27 43.25 31.33 43.81 31.33L45.44 31.4C45.99 31.4 46.55 31.4 47.09 31.4C48.2 31.4 49.29 31.4 50.39 31.4C51.49 31.4 52.57 31.4 53.69 31.4C54.22 31.4 54.78 31.4 55.32 31.4H57C57.53 31.4 58.07 31.4 58.61 31.34C61.26 31.21 63.75 31.06 65.83 30.91L66.62 30.84L71.12 30.46L72 37.34C72.496 40.9759 72.7532 44.6404 72.77 48.31Z" fill="white"/>
<path d="M72.8402 188.5L70.1202 166.61H70.0002L72.8402 188.5ZM25.6602 190.24L26.0902 190.33L26.7302 190.43C34.4024 191.929 42.1858 192.788 50.0002 193H50.4202C58.3747 192.836 66.3004 191.99 74.1102 190.47L74.7502 190.37L75.1802 190.28V189.74V189.31L73.0702 172.31V172.24L72.5602 168.24L72.1902 165.33L72.1302 164.79H71.7202H71.1802C70.8202 164.79 70.2802 164.7 69.5902 164.64L68.2002 164.51H67.5602L66.5602 164.42C66.3402 164.42 66.1502 164.42 65.9402 164.42L64.6502 164.32C62.8502 164.19 60.8402 164.08 58.6502 163.97C58.1402 163.97 57.6502 163.91 57.0502 163.91L55.4202 163.85C54.8602 163.85 54.3002 163.85 53.7702 163.85C52.6502 163.85 51.5602 163.85 50.4602 163.85C49.3602 163.85 48.2802 163.85 47.1602 163.85C46.6302 163.85 46.0702 163.85 45.5302 163.85L43.8802 163.91C43.3502 163.91 42.8102 163.91 42.2802 163.97C39.6202 164.11 37.1302 164.26 35.0502 164.4L34.2602 164.47L29.7602 164.85L29.2502 164.92H28.8202L28.7602 165.37L28.3402 168L27.8502 172V172.06L25.7302 189.21L25.6702 189.66L25.6602 190.24ZM28.9602 171.74L29.7102 165.74C29.7899 165.749 29.8704 165.749 29.9502 165.74H30.2302H30.4202H30.9102L28.0002 188.5L28.4902 188.59C35.725 189.921 43.0554 190.667 50.4102 190.82H51.2702C58.3406 190.623 65.385 189.877 72.3402 188.59L72.8602 188.5L70.1402 166.61H70.0002L69.4802 166.68L69.0402 166.75L69.1102 167.2L71.6202 187.62C64.8884 188.852 58.0714 189.561 51.2302 189.74H50.3702C43.2448 189.604 36.1419 188.895 29.1302 187.62L32.0002 165.52C32.6202 165.46 33.3402 165.39 34.1602 165.35H34.2702H34.6202H35.0402H35.4802H35.8702H36.1702C37.1702 165.27 38.2502 165.2 39.3902 165.14L42.9302 164.95L46.1802 164.84H47.3602C48.3602 164.84 49.3602 164.84 50.3602 164.84C50.9902 164.84 51.6102 164.84 52.2302 164.84C52.6202 164.84 53.0002 164.84 53.3902 164.84H53.6902C54.8002 164.84 55.9202 164.9 57.0102 164.95H57.8302H58.6202C59.1502 164.95 59.6902 164.95 60.2002 165.03H60.7202L61.7202 165.1H62.0002L63.2902 165.18C63.7502 165.18 64.2002 165.25 64.6502 165.29H64.8902H65.1102H65.4002H65.9602C66.0096 165.3 66.0607 165.3 66.1102 165.29H66.3102C66.3999 165.3 66.4904 165.3 66.5802 165.29C66.6466 165.298 66.7137 165.298 66.7802 165.29L67.5702 165.35C68.0402 165.4 68.4702 165.44 68.8602 165.46C69.0433 165.473 69.2271 165.473 69.4102 165.46L69.9502 165.52H70.3602H70.4202C70.5102 165.52 70.5902 165.52 70.6602 165.52H71.1502L71.9202 171.73V171.84L74.0002 189.38C66.3488 190.852 58.5893 191.691 50.8002 191.89H50.3702C42.4394 191.717 34.5376 190.871 26.7502 189.36L28.9202 171.85L28.9602 171.74ZM72.8402 188.5L70.1202 166.61H70.0002L72.8402 188.5ZM72.8402 188.5L70.1202 166.61H70.0002L72.8402 188.5Z" fill="black"/>
<path d="M50.4005 192.42C58.5314 192.246 66.6318 191.366 74.6105 189.79L71.6105 165.23L69.4805 165.03C69.4543 165.127 69.4174 165.221 69.3705 165.31L72.2805 188.06C65.3475 189.336 58.3269 190.078 51.2805 190.28H50.4005C43.0755 190.135 35.7747 189.392 28.5705 188.06L31.4805 165.33C31.4382 165.233 31.4047 165.133 31.3805 165.03C30.0305 165.15 29.2305 165.24 29.2305 165.24L26.2305 189.79C34.196 191.363 42.2829 192.243 50.4005 192.42Z" fill="white"/>
<path d="M26.7305 191.44V190.44C34.4014 191.946 42.1857 192.802 50.0005 193H50.4305C58.382 192.841 66.3048 191.994 74.1105 190.47V191.47C66.2963 193.005 58.3626 193.852 50.4005 194C41.9305 194 29.2205 191.89 26.7305 191.44Z" fill="white"/>
<path d="M25.6602 192.34L26.0902 192.42C26.2202 192.42 40.9202 195.1 50.4002 195.1C58.5702 194.929 66.7089 194.032 74.7202 192.42L75.1502 192.34V190.24V189.7V189.27L73.0402 172.27V172.2L72.5302 168.2L72.1602 165.29L72.1002 164.75H71.6902H71.1502C70.7902 164.75 70.2502 164.66 69.5602 164.6L68.1702 164.47H67.5302L66.5302 164.38C66.3102 164.38 66.1202 164.38 65.9102 164.38L64.6202 164.28C62.8202 164.15 60.8102 164.04 58.6202 163.93C58.1102 163.93 57.6202 163.87 57.0202 163.87L55.3902 163.81C54.8302 163.81 54.2702 163.81 53.7402 163.81C52.6202 163.81 51.5302 163.81 50.4302 163.81C49.3302 163.81 48.2502 163.81 47.1302 163.81C46.6002 163.81 46.0402 163.81 45.5002 163.81L43.8502 163.87C43.3202 163.87 42.7802 163.87 42.2502 163.93C39.5902 164.07 37.1002 164.22 35.0202 164.36L34.2302 164.43L29.7302 164.81L29.2202 164.88H28.7902L28.7302 165.33L28.3402 168L27.8502 172V172.06L25.7302 189.21L25.6702 189.66V189.82L25.6602 192.34ZM74.0802 190.43V191.43C66.2771 192.977 58.3534 193.837 50.4002 194C41.9302 194 29.2202 191.86 26.7302 191.41V190.41C34.4012 191.92 42.1849 192.786 50.0002 193H50.4202C58.3747 192.836 66.3004 191.99 74.1102 190.47L74.0802 190.43ZM34.1702 165.35H34.2802H34.6302H35.0502H35.4902H35.8802H36.1802C37.1802 165.27 38.2602 165.2 39.4002 165.14L42.9402 164.95L46.1902 164.84H47.3702C48.3702 164.84 49.3702 164.84 50.3702 164.84C51.0002 164.84 51.6202 164.84 52.2402 164.84C52.6302 164.84 53.0102 164.84 53.4002 164.84H53.7002C54.8102 164.84 55.9302 164.9 57.0202 164.95H57.8402H58.6302C59.1602 164.95 59.7002 164.95 60.2102 165.03H60.7302L61.7302 165.1H62.0002L63.2902 165.18C63.7502 165.18 64.2002 165.25 64.6502 165.29H64.8902H65.1102H65.4002H65.9602H66.3102C66.3999 165.3 66.4904 165.3 66.5802 165.29C66.6466 165.298 66.7137 165.298 66.7802 165.29L67.5702 165.35C68.0402 165.4 68.4702 165.44 68.8602 165.46L69.0702 167.12L71.6902 187.56C64.9584 188.792 58.1413 189.501 51.3002 189.68H50.4402C43.3148 189.544 36.2119 188.835 29.2002 187.56L32.0002 165.52C32.6302 165.46 33.3502 165.39 34.1702 165.35ZM28.9402 171.85V171.74L29.6902 165.74C29.7699 165.749 29.8504 165.749 29.9302 165.74H30.2102H30.4002H30.8902L28.0002 188.5L28.4902 188.59C35.725 189.921 43.0554 190.667 50.4102 190.82H51.2702C58.3406 190.623 65.385 189.877 72.3402 188.59L72.8602 188.5L70.0002 166.61L69.8702 165.61H70.2802H70.3402C70.4302 165.61 70.5102 165.61 70.5802 165.61H71.0702L71.8402 171.82V171.93L74.0002 189.38C66.3488 190.852 58.5893 191.691 50.8002 191.89H50.3702C42.4394 191.717 34.5376 190.871 26.7502 189.36L28.9402 171.85Z" fill="black"/>
<path d="M28.23 157.83L29.18 164.71L29.24 165.25C29.24 165.25 33.59 164.77 39.31 164.45C41.03 164.35 42.85 164.26 44.74 164.2C46.63 164.14 48.53 164.09 50.4 164.09C60.4 164.09 71.57 165.25 71.57 165.25L71.64 164.71L72.56 157.83C73.0525 154.184 73.3031 150.509 73.31 146.83V121.11C73.31 120.28 70.74 119.55 66.6 118.99C61.223 118.366 55.8129 118.072 50.4 118.11C37.75 118.11 27.5 119.46 27.5 121.11V146.79C27.5084 150.482 27.7523 154.169 28.23 157.83ZM28 121.13C28.56 120.13 36.79 118.65 50.36 118.65C63.93 118.65 72.26 120.13 72.73 121.11V146.79C72.7312 150.469 72.4806 154.145 71.98 157.79L71.06 164.7C70.7 164.7 70.16 164.61 69.47 164.55C69.05 164.5 68.6 164.46 68.08 164.42H67.44L66.44 164.33C66.23 164.33 66.03 164.33 65.82 164.33C65.41 164.28 64.98 164.26 64.53 164.22C62.73 164.09 60.72 163.98 58.53 163.88C58.02 163.88 57.53 163.81 56.93 163.81L55.3 163.75C54.74 163.75 54.18 163.75 53.65 163.75C52.53 163.75 51.44 163.75 50.35 163.75C49.26 163.75 48.16 163.75 47.04 163.75C46.51 163.75 45.95 163.75 45.42 163.75L43.77 163.81C43.23 163.81 42.69 163.86 42.16 163.88C39.5 164.01 37.01 164.16 34.93 164.31L34.14 164.37C32.02 164.54 30.41 164.69 29.64 164.76L28.72 157.87C28.241 154.223 27.9972 150.549 27.99 146.87L28 121.13Z" fill="white"/>
<path d="M27.7203 157.92L28.7203 165.2V165.31C28.7385 165.424 28.7931 165.53 28.8759 165.611C28.9588 165.692 29.0655 165.744 29.1803 165.76H29.2903H29.7203C29.8 165.769 29.8805 165.769 29.9603 165.76H30.2403H30.4303H30.9203C31.1002 165.77 31.2804 165.77 31.4603 165.76C31.6303 165.76 31.8203 165.76 32.0203 165.76C32.6403 165.7 33.3603 165.63 34.1803 165.59H34.2403H34.6403H35.0603H35.5003H35.9603H36.1903C37.1903 165.51 38.2703 165.44 39.4103 165.38L42.9503 165.19C44.0203 165.14 45.1103 165.1 46.2003 165.08H47.3803C48.3803 165.08 49.3803 165.08 50.3803 165.08C51.0103 165.08 51.6303 165.08 52.2503 165.08C52.6403 165.08 53.0203 165.08 53.4103 165.08H53.7103C54.8203 165.08 55.9403 165.14 57.0303 165.19H57.8503H58.6403C59.1703 165.19 59.7103 165.19 60.2203 165.27H60.7403L61.7403 165.34L64.5603 165.53H64.8003H65.0803H65.3103H65.8703C65.9197 165.541 65.9708 165.541 66.0203 165.53H66.2203C66.31 165.54 66.4006 165.54 66.4903 165.53C66.5567 165.538 66.6239 165.538 66.6903 165.53L67.4803 165.59C67.9503 165.64 68.3803 165.68 68.7703 165.7C68.9534 165.713 69.1372 165.713 69.3203 165.7L69.8603 165.76H70.2703H70.3303C70.4203 165.76 70.5003 165.76 70.5703 165.76H71.0603H71.4703C71.5097 165.77 71.5509 165.77 71.5903 165.76C71.7081 165.75 71.8189 165.699 71.9044 165.618C71.9898 165.536 72.0448 165.427 72.0603 165.31L73.0603 157.94C73.5596 154.251 73.8102 150.533 73.8103 146.81V121.11C73.8103 117.62 51.3303 117.57 50.3603 117.57C49.3903 117.57 27.0003 117.62 27.0003 121.11V146.79C26.9905 150.512 27.231 154.23 27.7203 157.92ZM28.0003 121.13C28.5603 120.13 36.7903 118.65 50.3503 118.65C63.9103 118.65 72.2603 120.13 72.7303 121.11V146.79C72.7315 150.469 72.4809 154.145 71.9803 157.79L71.0603 164.7C70.7003 164.7 70.1603 164.61 69.4703 164.55L68.0803 164.42H67.4403L66.4403 164.33C66.2203 164.33 66.0303 164.33 65.8203 164.33L64.5303 164.23C62.7303 164.1 60.7203 163.99 58.5303 163.88C58.0203 163.88 57.5303 163.82 56.9303 163.82L55.3003 163.76C54.7403 163.76 54.1803 163.76 53.6503 163.76C52.5303 163.76 51.4403 163.76 50.3403 163.76C49.2403 163.76 48.1603 163.76 47.0403 163.76C46.5103 163.76 45.9503 163.76 45.4103 163.76L43.7603 163.82C43.2303 163.82 42.6903 163.82 42.1603 163.88C39.5003 164.02 37.0103 164.17 34.9303 164.31L34.1403 164.38L29.6403 164.76L28.7203 157.88C28.2413 154.233 27.9975 150.559 27.9903 146.88L28.0003 121.13Z" fill="black"/>
<path d="M28 146.79V121.13C28.56 120.13 36.79 118.65 50.36 118.65C63.93 118.65 72.26 120.13 72.73 121.11V146.79C72.7312 150.469 72.4806 154.145 71.98 157.79L71.06 164.7C70.7 164.7 70.16 164.61 69.47 164.55C69.05 164.5 68.6 164.46 68.08 164.42H67.44L66.44 164.33C66.23 164.33 66.03 164.33 65.82 164.33C65.41 164.28 64.98 164.26 64.53 164.22C62.73 164.09 60.72 163.98 58.53 163.88C58.02 163.88 57.53 163.81 56.93 163.81L55.3 163.75C54.74 163.75 54.18 163.75 53.65 163.75C52.53 163.75 51.44 163.75 50.35 163.75C49.26 163.75 48.16 163.75 47.04 163.75C46.51 163.75 45.95 163.75 45.42 163.75L43.77 163.81C43.23 163.81 42.69 163.86 42.16 163.88C39.5 164.01 37.01 164.16 34.93 164.31L34.14 164.37C32.02 164.54 30.41 164.69 29.64 164.76L28.72 157.87C28.2409 154.196 28.0004 150.495 28 146.79Z" fill="white"/>
<path d="M139.36 188.5L136.64 166.61H136.55L139.36 188.5ZM92.1797 190.24L92.6097 190.33L93.2497 190.43C100.912 191.927 108.685 192.787 116.49 193H116.91C124.864 192.836 132.79 191.99 140.6 190.47L141.24 190.37L141.67 190.28V189.74V189.31L139.56 172.31V172.24L139.04 168.24L138.68 165.33L138.61 164.79H138.21H137.67C137.3 164.79 136.77 164.7 136.08 164.64L134.69 164.51H134.05L133.05 164.42C132.83 164.42 132.64 164.42 132.42 164.42L131.14 164.32C129.34 164.19 127.33 164.08 125.14 163.97C124.63 163.97 124.14 163.91 123.53 163.91L121.9 163.85C121.35 163.85 120.79 163.85 120.25 163.85C119.14 163.85 118.05 163.85 116.95 163.85C115.85 163.85 114.77 163.85 113.65 163.85C113.12 163.85 112.56 163.85 112.02 163.85L110.37 163.91C109.84 163.91 109.3 163.91 108.77 163.97C106.11 164.11 103.62 164.26 101.54 164.4L100.75 164.47L96.2497 164.85L95.7397 164.92H95.3097L95.2397 165.37L94.8597 168L94.3697 172V172.06L92.2497 189.21L92.1897 189.66L92.1797 190.24ZM95.4797 171.74L96.2297 165.74C96.3095 165.749 96.3899 165.749 96.4697 165.74H96.7397C96.8097 165.74 96.8797 165.74 96.9397 165.74H97.4297L94.4997 188.5L94.9897 188.59C102.224 189.922 109.555 190.668 116.91 190.82H117.77C124.84 190.623 131.885 189.877 138.84 188.59L139.36 188.5L136.64 166.61H136.55L136.03 166.68L135.59 166.75L135.66 167.2L138.17 187.62C131.438 188.852 124.621 189.561 117.78 189.74H116.92C109.794 189.604 102.691 188.895 95.6797 187.62L98.5397 165.52C99.1497 165.46 99.8797 165.39 100.7 165.35H100.81H101.16H101.58H102.02H102.41H102.71C103.71 165.27 104.79 165.2 105.93 165.14L109.47 164.95L112.72 164.84H113.9C114.9 164.84 115.9 164.84 116.9 164.84C117.53 164.84 118.15 164.84 118.77 164.84C119.16 164.84 119.54 164.84 119.93 164.84H120.23C121.34 164.84 122.46 164.9 123.55 164.95H124.36H125.16C125.69 164.95 126.23 164.95 126.74 165.03H127.26L128.26 165.1H128.44L129.73 165.18C130.19 165.18 130.64 165.25 131.09 165.29H131.33H131.54H131.84H132.4C132.449 165.3 132.5 165.3 132.55 165.29H132.74C132.833 165.3 132.927 165.3 133.02 165.29C133.086 165.298 133.153 165.298 133.22 165.29L134.01 165.35C134.48 165.4 134.91 165.44 135.3 165.46C135.483 165.473 135.667 165.473 135.85 165.46L136.39 165.52H136.79H136.86C136.95 165.52 137.03 165.52 137.1 165.52H137.59L138.36 171.73V171.84L140.5 189.16C132.852 190.632 125.096 191.472 117.31 191.67H116.88C108.949 191.498 101.047 190.652 93.2597 189.14L95.4297 171.63L95.4797 171.74ZM139.36 188.5L136.64 166.61H136.55L139.36 188.5ZM139.36 188.5L136.64 166.61H136.55L139.36 188.5Z" fill="black"/>
<path d="M116.92 192.42C125.051 192.246 133.151 191.366 141.13 189.79L138.13 165.23L136 165C135.974 165.097 135.937 165.191 135.89 165.28L138.8 188.03C131.867 189.305 124.846 190.047 117.8 190.25H116.96C109.632 190.104 102.328 189.362 95.12 188.03L98 165.33C97.9577 165.233 97.9243 165.133 97.9 165.03C96.55 165.15 95.75 165.24 95.75 165.24L92.75 189.79C100.716 191.363 108.802 192.243 116.92 192.42Z" fill="white"/>
<path d="M93.25 191.44V190.44C100.911 191.944 108.685 192.8 116.49 193H116.91C124.865 192.841 132.791 191.995 140.6 190.47V191.47C132.792 193.004 124.865 193.85 116.91 194C108.45 194 95.74 191.89 93.25 191.44Z" fill="white"/>
<path d="M92.1797 192.34L92.6097 192.42C92.7397 192.42 107.44 195.1 116.91 195.1C125.083 194.93 133.225 194.033 141.24 192.42L141.67 192.34V190.24V189.7V189.27L139.56 172.27V172.2L139.04 168.2L138.68 165.29L138.61 164.75H138.21H137.67C137.3 164.75 136.77 164.66 136.08 164.6L134.69 164.47H134.05L133.05 164.38C132.83 164.38 132.64 164.38 132.42 164.38L131.14 164.28C129.34 164.15 127.33 164.04 125.14 163.93C124.63 163.93 124.14 163.87 123.53 163.87L121.9 163.81C121.35 163.81 120.79 163.81 120.25 163.81C119.14 163.81 118.05 163.81 116.95 163.81C115.85 163.81 114.77 163.81 113.65 163.81C113.12 163.81 112.56 163.81 112.02 163.81L110.37 163.87C109.84 163.87 109.3 163.87 108.77 163.93C106.11 164.07 103.62 164.22 101.54 164.36L100.75 164.43L96.2497 164.81L95.7397 164.88H95.3097L95.2397 165.33L94.8597 168L94.3697 172V172.06L92.2497 189.21L92.1897 189.66V189.82L92.1797 192.34ZM140.6 190.43V191.43C132.793 192.977 124.866 193.837 116.91 194C108.45 194 95.7397 191.86 93.2497 191.41V190.41C100.911 191.918 108.684 192.785 116.49 193H116.91C124.864 192.836 132.79 191.99 140.6 190.47V190.43ZM100.69 165.35H100.8H101.15H101.57H102.01H102.4H102.7C103.7 165.27 104.78 165.2 105.92 165.14L109.46 164.95L112.71 164.84H113.89C114.89 164.84 115.89 164.84 116.89 164.84C117.52 164.84 118.14 164.84 118.76 164.84C119.15 164.84 119.53 164.84 119.92 164.84H120.22C121.33 164.84 122.45 164.9 123.54 164.95H124.35H125.15C125.68 164.95 126.22 164.95 126.73 165.03H127.25L128.25 165.1H128.43L129.72 165.18C130.18 165.18 130.63 165.25 131.08 165.29H131.32H131.53H131.83H132.39H132.73C132.823 165.3 132.917 165.3 133.01 165.29C133.076 165.298 133.143 165.298 133.21 165.29L134 165.35C134.47 165.4 134.9 165.44 135.29 165.46L135.5 167.12L138.12 187.56C131.388 188.792 124.571 189.501 117.73 189.68H116.87C109.744 189.544 102.641 188.835 95.6297 187.56L98.4897 165.46C99.1397 165.46 99.8697 165.39 100.69 165.35ZM95.4597 171.85V171.74L96.2097 165.74C96.2894 165.749 96.3699 165.749 96.4497 165.74H96.7197C96.7897 165.74 96.8597 165.74 96.9197 165.74H97.4097L94.4997 188.5L94.9897 188.59C102.224 189.922 109.555 190.668 116.91 190.82H117.77C124.84 190.623 131.885 189.877 138.84 188.59L139.36 188.5L136.55 166.61L136.42 165.61H136.82H136.89C136.98 165.61 137.06 165.61 137.13 165.61H137.62L138.39 171.82V171.93L140.53 189.25C132.882 190.722 125.125 191.562 117.34 191.76H116.91C108.979 191.588 101.077 190.742 93.2897 189.23L95.4597 171.85Z" fill="black"/>
<path d="M94.7505 157.83L95.6905 164.71L95.7605 165.25C95.7605 165.25 100.111 164.77 105.831 164.45C107.551 164.35 109.371 164.26 111.261 164.2C113.151 164.14 115.051 164.09 116.911 164.09C126.911 164.09 138.091 165.25 138.091 165.25L138.161 164.71L139.081 157.83C139.573 154.184 139.824 150.509 139.831 146.83V121.11C139.831 120.28 137.261 119.55 133.121 118.99C127.74 118.366 122.327 118.072 116.911 118.11C104.271 118.11 94.0205 119.46 94.0205 121.11V146.79C94.029 150.482 94.2728 154.169 94.7505 157.83ZM94.5605 121.13C95.1205 120.13 103.351 118.65 116.911 118.65C130.471 118.65 138.821 120.13 139.291 121.11V146.79C139.287 150.469 139.036 154.144 138.541 157.79L137.621 164.7C137.261 164.7 136.721 164.61 136.031 164.55C135.611 164.5 135.161 164.46 134.641 164.42H134.001L133.001 164.33C132.781 164.33 132.591 164.33 132.381 164.33C131.971 164.28 131.541 164.26 131.091 164.22C129.291 164.09 127.281 163.98 125.091 163.88C124.581 163.88 124.091 163.81 123.491 163.81L121.861 163.75C121.301 163.75 120.741 163.75 120.211 163.75C119.091 163.75 118.001 163.75 116.901 163.75C115.801 163.75 114.721 163.75 113.601 163.75C113.071 163.75 112.511 163.75 111.971 163.75L110.321 163.81C109.791 163.81 109.251 163.86 108.721 163.88C106.061 164.01 103.571 164.16 101.491 164.31L100.701 164.37C98.5805 164.54 96.9705 164.69 96.2005 164.76L95.2805 157.87C94.8015 154.223 94.5577 150.548 94.5505 146.87L94.5605 121.13Z" fill="white"/>
<path d="M94.23 157.92L95.23 165.2V165.31C95.2482 165.424 95.3028 165.53 95.3856 165.611C95.4684 165.692 95.5752 165.744 95.69 165.76H95.8H96.23C96.3097 165.769 96.3902 165.769 96.47 165.76H96.74C96.81 165.76 96.88 165.76 96.94 165.76H97.43C97.6098 165.769 97.7901 165.769 97.97 165.76C98.14 165.76 98.33 165.76 98.53 165.76C99.14 165.7 99.87 165.63 100.69 165.59H100.75H101.15H101.57H102.01H102.47H102.7C103.7 165.51 104.78 165.44 105.92 165.38L109.46 165.19C110.53 165.14 111.62 165.1 112.71 165.08H113.89C114.89 165.08 115.89 165.08 116.89 165.08C117.52 165.08 118.14 165.08 118.76 165.08C119.15 165.08 119.53 165.08 119.92 165.08H120.22C121.33 165.08 122.45 165.14 123.54 165.19H124.35H125.15C125.68 165.19 126.22 165.19 126.73 165.27H127.25L128.25 165.34L131.08 165.53H131.32H131.6H131.83H132.39C132.439 165.541 132.491 165.541 132.54 165.53H132.73C132.823 165.54 132.917 165.54 133.01 165.53C133.076 165.538 133.144 165.538 133.21 165.53L134 165.59C134.47 165.64 134.9 165.68 135.29 165.7C135.473 165.713 135.657 165.713 135.84 165.7L136.38 165.76H136.78H136.85C136.94 165.76 137.02 165.76 137.09 165.76H137.58H137.98C138.023 165.771 138.067 165.771 138.11 165.76C138.228 165.75 138.339 165.699 138.424 165.618C138.509 165.536 138.564 165.427 138.58 165.31L139.58 157.94C140.079 154.251 140.33 150.533 140.33 146.81V121.11C140.33 117.62 117.85 117.57 116.88 117.57C115.91 117.57 93.46 117.62 93.46 121.11V146.79C93.4717 150.513 93.7289 154.231 94.23 157.92ZM94.56 121.13C95.12 120.13 103.35 118.65 116.91 118.65C130.47 118.65 138.82 120.13 139.29 121.11V146.79C139.291 150.469 139.041 154.145 138.54 157.79L137.62 164.7C137.25 164.7 136.72 164.61 136.03 164.55L134.64 164.42H134L133 164.33C132.78 164.33 132.59 164.33 132.37 164.33L131.09 164.23C129.29 164.1 127.28 163.99 125.09 163.88C124.58 163.88 124.09 163.82 123.48 163.82L121.85 163.76C121.3 163.76 120.74 163.76 120.2 163.76C119.09 163.76 118 163.76 116.9 163.76C115.8 163.76 114.72 163.76 113.6 163.76C113.07 163.76 112.51 163.76 111.97 163.76L110.32 163.82C109.79 163.82 109.25 163.82 108.72 163.88C106.06 164.02 103.57 164.17 101.49 164.31L100.7 164.38L96.2 164.76L95.28 157.88C94.801 154.233 94.5571 150.559 94.55 146.88L94.56 121.13Z" fill="black"/>
<path d="M94.5605 146.79V121.13C95.1205 120.13 103.351 118.65 116.911 118.65C130.471 118.65 138.821 120.13 139.291 121.11V146.79C139.287 150.469 139.036 154.144 138.541 157.79L137.621 164.7C137.261 164.7 136.721 164.61 136.031 164.55C135.611 164.5 135.161 164.46 134.641 164.42H134.001L133.001 164.33C132.781 164.33 132.591 164.33 132.381 164.33C131.971 164.28 131.541 164.26 131.091 164.22C129.291 164.09 127.281 163.98 125.091 163.88C124.581 163.88 124.091 163.81 123.491 163.81L121.861 163.75C121.301 163.75 120.741 163.75 120.211 163.75C119.091 163.75 118.001 163.75 116.901 163.75C115.801 163.75 114.721 163.75 113.601 163.75C113.071 163.75 112.511 163.75 111.971 163.75L110.321 163.81C109.791 163.81 109.251 163.86 108.721 163.88C106.061 164.01 103.571 164.16 101.491 164.31L100.701 164.37C98.5805 164.54 96.9705 164.69 96.2005 164.76L95.2805 157.87C94.8015 154.196 94.561 150.495 94.5605 146.79Z" fill="white"/>
<path d="M158.66 52.29H5.75C2.98858 52.29 0.75 54.5286 0.75 57.29V139.73C0.75 142.491 2.98857 144.73 5.74999 144.73H158.66C161.421 144.73 163.66 142.491 163.66 139.73V57.29C163.66 54.5286 161.421 52.29 158.66 52.29Z" fill="white" stroke="black" stroke-width="1.5" stroke-miterlimit="10" stroke-linecap="square"/>
<path d="M163.53 82C161.8 80.82 160.04 79.64 158.3 78.5C153.15 75.14 132.3 77.02 112.2 78.84C90.1002 80.84 69.2002 82.73 65.7302 78.46C65.2551 77.9631 64.8951 77.3678 64.6757 76.7163C64.4562 76.0648 64.3826 75.373 64.4602 74.69C64.9202 71.85 68.4602 69.59 72.2002 67.19C76.2802 64.58 80.5002 61.89 80.0902 58.53C80.0624 58.3646 79.9988 58.2073 79.9038 58.0691C79.8087 57.9309 79.6847 57.8151 79.5402 57.73C73.5402 53.6 27.6502 63.73 0.800195 70.2L0.700195 69.74C27.6202 63.3 73.7002 53.11 79.8002 57.35C79.9987 57.4714 80.1686 57.6343 80.298 57.8277C80.4275 58.0211 80.5136 58.2402 80.5502 58.47C81.0002 62.12 76.6502 64.9 72.4502 67.58C68.9502 69.82 65.3402 72.13 64.9202 74.76C64.8542 75.3778 64.9248 76.0026 65.1269 76.5901C65.3291 77.1777 65.658 77.7136 66.0902 78.16C69.4302 82.24 91.1502 80.28 112.16 78.38C132.37 76.55 153.27 74.66 158.55 78.12C160.29 79.25 162.06 80.43 163.79 81.62L163.53 82Z" fill="black"/>
<path d="M54.8599 100.64C52.4975 100.649 50.1679 100.086 48.0699 99C43.1799 96.46 39.5599 91.09 38.6299 85C38.5634 84.4724 38.374 83.9677 38.077 83.5266C37.7801 83.0855 37.3837 82.7201 36.9199 82.46C31.3999 79.17 14.4299 85.25 4.28992 88.89L0.829922 90.08L0.669922 89.64L4.13992 88.41C14.3499 84.75 31.4499 78.62 37.1399 82.02C37.6607 82.3177 38.1057 82.7316 38.4405 83.2293C38.7752 83.7271 38.9906 84.2954 39.0699 84.89C39.9799 90.89 43.4999 96.07 48.2599 98.55C51.2599 100.12 56.1499 101.35 62.3299 98.3C68.1699 95.42 82.7799 91.75 98.6699 89.16C116.67 86.24 131.2 85.46 138.67 87.04C148.61 89.13 158.67 94.88 163.75 98.12L163.5 98.51C158.43 95.29 148.45 89.57 138.57 87.51C122.57 84.14 74.6699 92.75 62.5699 98.74C60.1824 99.9636 57.5426 100.614 54.8599 100.64Z" fill="black"/>
<path d="M54.5001 117.27C42.1801 117.27 39.6701 108.6 37.7601 102.03C36.9001 99.03 36.1501 96.46 34.7001 95.2C30.8401 91.84 10.9201 106.2 0.920078 116.65L0.580078 116.33C10.0001 106.46 30.5601 91 35.0001 94.85C36.5601 96.2 37.3201 98.85 38.2101 101.9C40.4801 109.73 43.3001 119.47 60.8601 116.16C82.8601 112.02 141.12 101.02 163.79 116.07L163.53 116.45C141.02 101.51 82.8401 112.45 60.9401 116.61C58.819 117.033 56.6628 117.254 54.5001 117.27Z" fill="black"/>
<path d="M8.48984 144.72L8.08984 144.48C13.5498 135.27 24.5898 121.39 30.9098 120.83C31.4865 120.763 32.0709 120.84 32.6103 121.055C33.1497 121.269 33.6272 121.615 33.9998 122.06C39.9998 128.99 71.9998 125.51 92.8898 120.82C107.4 117.57 140.98 121.62 163.77 137.47L163.51 137.85C140.85 122.08 107.44 118 92.9998 121.27C73.4698 125.66 40.0798 129.83 33.6598 122.36C33.3399 121.976 32.929 121.677 32.4645 121.492C31.9999 121.307 31.4964 121.241 30.9998 121.3C24.5698 121.85 13.1698 136.83 8.48984 144.72Z" fill="black"/>
<path d="M40.1605 144.88L39.8105 144.58L39.9105 144.46C43.1305 140.69 50.6805 131.85 63.7605 132.91C70.5807 133.441 77.3328 134.637 83.9205 136.48C93.1405 138.81 104.611 141.7 134.261 144.36V144.82C104.571 142.16 93.0805 139.26 83.8505 136.93C77.2847 135.097 70.5566 133.904 63.7605 133.37C50.9205 132.37 43.4805 141.04 40.3005 144.76L40.1605 144.88Z" fill="black"/>
<path d="M101.38 66.3C97.5304 66.3 95.1204 65.67 94.8204 63.99C94.1804 60.44 95.5104 58.23 96.9204 55.89C97.6696 54.7235 98.3122 53.4918 98.8404 52.21L99.2704 52.38C98.7183 53.6878 98.0489 54.9429 97.2704 56.13C95.8504 58.5 94.6204 60.53 95.2704 63.91C95.9204 67.29 108.75 65.5 122.36 63.55C135.57 61.66 150.53 59.55 160.13 61C161.339 61.1852 162.537 61.4321 163.72 61.74L163.6 62.18C162.42 61.88 161.23 61.64 160.06 61.46C150.53 59.98 135.6 62.12 122.43 64.01C113.92 65.23 106.42 66.3 101.38 66.3Z" fill="black"/>
</svg>
