<svg width="188" height="188" viewBox="0 0 188 188" fill="none" xmlns="http://www.w3.org/2000/svg">
<path d="M112.717 40.1279L108.875 11.4651C98.9794 12.3889 89.0195 12.3889 79.1242 11.4651L75.2824 40.1279C75.0923 41.5389 75.4383 42.9699 76.2518 44.1383C77.0654 45.3066 78.2875 46.1276 79.6767 46.4389C89.1071 48.5627 98.8918 48.5627 108.322 46.4389C109.712 46.1294 110.936 45.3089 111.75 44.14C112.564 42.9712 112.909 41.5392 112.717 40.1279Z" fill="white" stroke="black" stroke-width="1.5" stroke-linecap="square" stroke-linejoin="round"/>
<path d="M80.5495 11.6033V4.80017H107.46V11.6033L108.876 11.4651V1.91663H79.125V11.4651L80.5495 11.6033Z" fill="white" stroke="black" stroke-width="1.5" stroke-linecap="square" stroke-linejoin="round"/>
<path d="M108.876 0.647522H79.125V1.91663H108.876V0.647522Z" fill="white" stroke="black" stroke-width="1.5" stroke-linecap="square" stroke-linejoin="round"/>
<path d="M75.2831 147.872L79.1249 176.535C89.0203 175.611 98.9801 175.611 108.875 176.535L112.717 147.872C112.91 146.462 112.566 145.031 111.754 143.862C110.941 142.694 109.72 141.873 108.332 141.561C98.9002 139.446 89.1175 139.446 79.6861 141.561C78.2952 141.871 77.0711 142.691 76.2558 143.859C75.4405 145.028 75.0934 146.46 75.2831 147.872Z" fill="white" stroke="black" stroke-width="1.5" stroke-linecap="square" stroke-linejoin="round"/>
<path d="M107.46 176.405V183.2H80.5495V176.405L79.125 176.535V186.083H108.876V176.535L107.46 176.405Z" fill="white" stroke="black" stroke-width="1.5" stroke-linecap="square" stroke-linejoin="round"/>
<path d="M79.1244 187.353H108.875V186.083H79.1244V187.353Z" fill="white" stroke="black" stroke-width="1.5" stroke-linecap="square" stroke-linejoin="round"/>
<path d="M147.872 112.717L176.535 108.875C175.611 98.9799 175.611 89.0201 176.535 79.1247L147.872 75.2829C146.466 75.0998 145.041 75.449 143.878 76.262C142.715 77.0749 141.898 78.293 141.587 79.6773C139.472 89.1086 139.472 98.8914 141.587 108.323C141.897 109.708 142.713 110.927 143.876 111.741C145.04 112.554 146.465 112.902 147.872 112.717Z" fill="white" stroke="black" stroke-width="1.5" stroke-linecap="square" stroke-linejoin="round"/>
<path d="M176.405 80.5493H183.2V107.459H176.405L176.535 108.875H186.083V79.1248H176.535L176.405 80.5493Z" fill="white" stroke="black" stroke-width="1.5" stroke-linecap="square" stroke-linejoin="round"/>
<path d="M187.361 108.884V79.1334H186.092V108.884H187.361Z" fill="white" stroke="black" stroke-width="1.5" stroke-linecap="square" stroke-linejoin="round"/>
<path d="M40.1276 75.2829L11.4648 79.1247C12.3886 89.0201 12.3886 98.98 11.4648 108.875L40.1276 112.717C41.5377 112.91 42.9686 112.566 44.1373 111.753C45.306 110.941 46.1272 109.72 46.4386 108.331C48.5624 98.901 48.5624 89.1163 46.4386 79.6859C46.1291 78.295 45.309 77.0709 44.1404 76.2556C42.9718 75.4403 41.5398 75.0932 40.1276 75.2829Z" fill="white" stroke="black" stroke-width="1.5" stroke-linecap="square" stroke-linejoin="round"/>
<path d="M11.6036 107.459H4.80053V80.5493H11.6036L11.4655 79.1248H1.91699V108.875H11.4655L11.6036 107.459Z" fill="white" stroke="black" stroke-width="1.5" stroke-linecap="square" stroke-linejoin="round"/>
<path d="M0.647461 79.1248L0.647461 108.875H1.91657L1.91657 79.1248H0.647461Z" fill="white" stroke="black" stroke-width="1.5" stroke-linecap="square" stroke-linejoin="round"/>
<path d="M134.983 112.277V129.983C134.983 132.744 132.744 134.983 129.983 134.983H58.0176C55.2562 134.983 53.0176 132.744 53.0176 129.983V58.0175C53.0176 55.256 55.2562 53.0175 58.0176 53.0175H129.983C132.744 53.0175 134.983 55.256 134.983 58.0175V112.277Z" fill="white"/>
<path d="M135.63 130.63C135.63 133.392 133.392 135.63 130.63 135.63H57.3701C54.6087 135.63 52.3701 133.392 52.3701 130.63V57.37C52.3701 54.6086 54.6087 52.37 57.3701 52.37H130.63C133.392 52.37 135.63 54.6086 135.63 57.37V130.63ZM53.6651 129.335C53.6651 132.097 55.9037 134.335 58.6651 134.335H129.335C132.097 134.335 134.335 132.097 134.335 129.335V58.665C134.335 55.9036 132.097 53.665 129.335 53.665H58.6651C55.9037 53.665 53.6651 55.9036 53.6651 58.665V129.335Z" fill="black"/>
<path d="M86.3339 95.9512C86.0765 95.9517 85.8205 95.9139 85.5742 95.839C85.5257 95.8235 85.4839 95.792 85.4557 95.7496C85.4274 95.7073 85.4144 95.6566 85.4188 95.6059C85.9109 91.4446 88.8031 88.0171 91.5571 85.2458C94.9661 81.7741 98.6629 78.5972 102.608 75.7491L104.145 74.6613C105.509 73.703 106.907 72.7188 108.202 71.6397C112.079 68.4281 115.109 64.3358 118.156 60.071C119.59 58.068 121.135 55.7543 121.454 53.2765V53.0607L121.877 53.1211V53.3369C121.541 55.8838 119.961 58.2752 118.502 60.3213C115.454 64.638 112.389 68.7302 108.47 71.9764C107.166 73.0642 105.75 74.0484 104.386 75.0153C103.877 75.3693 103.359 75.7319 102.85 76.1031C98.9258 78.9257 95.2492 82.0767 91.8593 85.5221C89.1916 88.233 86.403 91.5654 85.8677 95.4764C87.2232 95.7785 88.5872 94.7166 89.3211 93.4821C89.636 92.9589 89.9241 92.42 90.1844 91.8676C90.5743 90.9631 91.0886 90.1175 91.7125 89.3553C92.567 88.4971 93.5592 87.788 94.6479 87.2574L112.346 77.4326C113.869 76.5238 115.466 75.7468 117.12 75.1103C120.574 73.9189 124.2 73.9534 127.757 73.9879C130.062 74.0658 132.37 73.9822 134.663 73.7376H134.871L134.931 74.1606H134.715C132.421 74.4023 130.114 74.4859 127.809 74.411C124.295 74.411 120.66 74.3419 117.328 75.516C115.7 76.1361 114.128 76.8958 112.631 77.7866L94.8637 87.6286C93.8214 88.1363 92.8703 88.8131 92.0492 89.6316C91.4496 90.3649 90.9556 91.1786 90.5815 92.0489C90.3226 92.616 90.0345 93.1693 89.7182 93.7065C89.3763 94.3253 88.8901 94.8525 88.3009 95.2432C87.7118 95.634 87.037 95.8769 86.3339 95.9512Z" fill="black"/>
<path d="M72.4249 112.493C70.9141 112.493 69.222 111.992 68.4881 110.585C68.0887 109.599 67.9954 108.516 68.2205 107.477C69.4871 97.8733 73.4303 88.8202 79.5993 81.3521C79.7077 81.1377 79.8598 80.9482 80.0457 80.7959C80.2316 80.6436 80.4472 80.5317 80.6788 80.4675C80.9104 80.4033 81.1529 80.3882 81.3907 80.4231C81.6285 80.4579 81.8564 80.5421 82.0598 80.6701C82.3183 80.8312 82.6186 80.9123 82.9231 80.9032C83.2002 80.8201 83.4504 80.6652 83.6483 80.4543L104.463 61.8407C107.105 59.6566 109.476 57.164 111.525 54.4161C111.802 54.0103 112.061 53.6045 112.294 53.1901L112.406 53.0002L112.777 53.216L112.674 53.406C112.423 53.829 112.164 54.2693 111.879 54.6578C109.811 57.4377 107.414 59.9568 104.74 62.1602L83.9418 80.7737C83.7001 81.0764 83.3519 81.2754 82.9684 81.33C82.5849 81.3845 82.195 81.2906 81.8785 81.0672C81.6373 80.9233 81.3647 80.8403 81.0842 80.8255C80.6266 80.8255 80.2209 81.2485 79.9273 81.6284C73.8144 89.0335 69.9073 98.0086 68.6522 107.528C68.4371 108.479 68.5154 109.472 68.8766 110.377C69.5932 111.776 71.4666 112.104 72.9429 112.026C76.2495 111.767 79.1503 109.885 81.9562 108.055C87.9563 104.161 93.8961 100.561 100.613 99.4218C103.453 98.9987 106.323 98.8024 109.194 98.8347H109.514C117.655 98.7138 126.323 98.3944 134.611 96.9267H134.827L134.905 97.3497H134.689C126.366 98.826 117.681 99.1455 109.522 99.2663H109.203C106.352 99.2351 103.503 99.4285 100.682 99.8448C94.0515 101.01 88.1463 104.584 82.1893 108.478C79.3403 110.334 76.3876 112.251 72.9775 112.519C72.7962 112.484 72.6149 112.493 72.4249 112.493Z" fill="black"/>
<path d="M53.2762 111.172L52.8877 110.973L52.9913 110.783C53.3107 110.17 53.6302 109.575 53.9237 108.962C55.4826 105.368 56.6603 101.621 57.4375 97.7814C57.6878 96.7627 57.9296 95.744 58.1886 94.7338C59.3368 90.2272 60.9858 85.099 64.4478 81.2313C66.1445 79.4646 68.0128 77.8711 70.0249 76.4743C70.7156 75.9563 71.4408 75.421 72.1228 74.8858C75.1506 72.4122 78.0332 69.766 80.7562 66.9603L87.283 60.4335C89.5104 58.2234 91.7723 55.8233 92.7134 53.0693L92.7824 52.8621L93.1882 53.0002L93.1191 53.2074C92.1436 56.0564 89.8557 58.491 87.5938 60.7443L81.0411 67.2539C78.3219 70.0742 75.4391 72.7321 72.4077 75.2138C71.7171 75.7577 70.9918 76.293 70.3012 76.811C68.2991 78.1944 66.4396 79.7735 64.7499 81.5248C61.2966 85.3149 59.7167 90.3826 58.5857 94.8374C58.3267 95.8475 58.0763 96.8663 57.8346 97.885C57.0449 101.739 55.8558 105.501 54.2863 109.108C53.9841 109.739 53.6733 110.334 53.3453 110.947L53.2762 111.172Z" fill="black"/>
<path d="M66.131 130.761C65.7252 130.761 65.3195 130.761 64.9137 130.718C62.659 130.458 60.4407 129.945 58.3006 129.19C56.5126 128.585 54.6795 128.123 52.8184 127.808H52.6025L52.663 127.385H52.8788C54.761 127.705 56.6145 128.176 58.4214 128.792C60.5337 129.537 62.7231 130.041 64.9482 130.295C67.5386 130.371 70.1277 130.107 72.6492 129.509C78.8048 128.326 85.7805 126.997 91.444 123.405C92.6441 122.646 96.1578 120.142 99.214 117.932C101.588 116.205 103.824 114.642 104.731 114.038C115.091 107.131 124.993 109.057 130.924 110.196C132.225 110.541 133.567 110.704 134.913 110.68H135.129L135.198 111.103H134.991C133.593 111.145 132.197 110.982 130.847 110.619C124.976 109.497 115.143 107.606 104.947 114.392C104.083 114.996 101.813 116.594 99.4385 118.277C96.3391 120.496 92.8254 122.999 91.6167 123.768C85.8841 127.402 78.8652 128.749 72.6233 129.932C70.4898 130.411 68.3162 130.688 66.131 130.761Z" fill="black"/>
<path d="M81.6454 135.103L81.5332 134.689L81.7404 134.629L82.9663 134.275C87.1417 132.892 91.2176 131.224 95.1653 129.285C100.095 126.997 105.197 124.623 110.593 123.44C114.916 122.626 119.3 122.187 123.699 122.128C127.354 122.045 131.001 121.742 134.62 121.221H134.827L134.905 121.644H134.689C131.053 122.179 127.389 122.496 123.716 122.594C119.344 122.649 114.985 123.085 110.688 123.897C105.335 125.071 100.259 127.428 95.3466 129.708C91.3819 131.644 87.2886 133.306 83.0958 134.68L81.8526 135.034L81.6454 135.103Z" fill="black"/>
<path d="M53.285 83.6141L52.8965 83.4328L52.9828 83.2342C53.3402 82.4357 53.7861 81.6798 54.3124 80.9809C55.6851 79.2025 57.6966 78.0974 59.6391 77.0355L60.3557 76.6297C67.7974 72.4719 74.2482 66.7487 79.2628 59.8551C80.4628 58.2061 82.0772 55.7197 82.3103 53.1211V52.9139H82.7334V53.1297C82.4916 55.832 80.834 58.3874 79.6081 60.0364C74.5623 67.0021 68.068 72.7925 60.5715 77.0096L59.8463 77.4153C57.9384 78.46 55.97 79.5392 54.6663 81.2399C54.1605 81.9136 53.7347 82.6437 53.3972 83.4155L53.285 83.6141Z" fill="black"/>
<path d="M53.0781 62.2552L52.9141 61.858L53.1126 61.7717C58.1362 59.7398 62.673 56.6681 66.4253 52.7585L66.572 52.5944L66.8915 52.888L66.7447 53.052C62.948 57.004 58.3582 60.108 53.2767 62.1602L53.0781 62.2552Z" fill="black"/>
</svg>
