<svg width="53" height="110" viewBox="0 0 53 110" fill="none" xmlns="http://www.w3.org/2000/svg">
<path d="M52.543 109.897C52.4556 109.712 52.4998 109.515 52.4998 109.324C52.4998 92.1313 52.4998 74.9386 52.4998 57.7463C52.4998 57.5541 52.5209 57.362 52.5324 57.1698C52.4829 56.0084 52.4903 54.8469 52.5324 53.6855C52.5198 53.4585 52.4966 53.2314 52.4966 53.0044C52.4966 35.5848 52.4935 18.1648 52.4872 0.744405C52.4872 0.519505 52.642 0.152065 52.3818 0.0887126C52.0817 0.0169138 51.6952 -0.103455 51.4003 0.194299C51.387 0.370023 51.387 0.546507 51.4003 0.722232C51.4583 1.15302 51.3698 1.46662 50.8738 1.51096C51.3603 1.42016 51.4677 1.6345 51.4614 2.10225C51.4361 4.19356 51.4361 6.28558 51.4614 8.37831C51.4614 8.80065 51.3866 8.9358 50.9349 8.94636C48.8155 8.99904 46.7032 9.21294 44.6161 9.58622C36.4018 11.0511 29.1117 14.4858 22.746 19.8904C22.4301 20.1607 22.3026 20.1016 22.0562 19.8239C20.9778 18.6012 19.872 17.4028 18.7757 16.1959L18.0238 16.8231C18.1596 17.0005 18.285 17.1874 18.4324 17.351C19.3802 18.4122 20.328 19.4786 21.2916 20.5186C21.5475 20.7942 21.5644 20.9294 21.2674 21.2039C17.3104 24.8537 14.0319 29.1796 11.585 33.9799C8.28875 40.4206 6.63536 47.2721 6.53004 54.5038C6.41525 54.7477 6.1941 54.6368 6.02244 54.6389C4.72078 54.6526 3.41807 54.6516 2.11536 54.6558C2.26596 54.9441 2.10799 55.3031 2.32598 55.5734C3.53918 55.5871 4.74817 55.6135 5.96663 55.605C6.37945 55.605 6.55216 55.6631 6.55848 56.1615C6.58292 58.6253 6.82822 61.082 7.29145 63.5018C9.18707 73.3425 13.7667 81.7106 21.0305 88.6061C21.3095 88.8722 21.2822 89.0031 21.0378 89.2628C20.0131 90.3514 19.0137 91.4632 18.0048 92.5666C17.6657 93.1146 18.2386 93.2234 18.4535 93.5053C18.4882 93.5 18.5367 93.5053 18.5588 93.4895C19.6319 92.328 20.7093 91.1665 21.7687 89.9924C22.0267 89.7063 22.1899 89.6567 22.5143 89.9365C30.7188 96.9432 40.2081 100.654 50.9822 101.07C51.4035 101.086 51.4488 101.232 51.4456 101.589C51.4309 103.665 51.4393 105.742 51.4393 107.819C51.4393 108.602 51.4393 108.602 50.6516 108.607C51.3887 108.825 51.3887 108.825 51.3887 109.663V109.926C51.7763 110.006 52.1628 110.051 52.543 109.897ZM51.0444 57.155C50.8927 57.2986 50.7284 57.4327 50.5894 57.5858C44.3578 64.2603 38.1275 70.9358 31.8987 77.6124C28.7604 80.9764 25.6266 84.3436 22.4975 87.7139C22.1815 88.0507 22.0046 88.0919 21.655 87.7456C20.6082 86.7045 19.5656 85.6602 18.6009 84.5389C11.6092 76.3697 7.96439 66.8975 7.58843 56.1467C7.57474 55.7465 7.64846 55.6304 8.08971 55.6335C15.1807 55.6863 22.2717 55.7236 29.3627 55.7455C36.6693 55.7687 43.9748 55.8711 51.2803 55.8151C51.3098 55.491 51.1202 55.1647 51.2866 54.8416C51.185 54.8223 51.0823 54.8096 50.9791 54.8036C49.2551 54.7931 47.5312 54.7878 45.8083 54.7783C33.2284 54.7079 20.6485 54.6435 8.06865 54.5851C7.65899 54.5851 7.57579 54.4795 7.58738 54.0983C7.64629 51.4251 7.93877 48.7622 8.46146 46.1403C10.4048 36.6818 14.888 28.6442 21.9109 22.0275C22.2268 21.7244 22.3669 21.7339 22.6586 22.0591C30.8329 31.179 39.0149 40.2911 47.2047 49.3955C48.4948 50.8304 49.8017 52.2463 51.1012 53.6781C51.2919 53.6031 51.2455 53.3845 51.4235 53.1195C51.5182 54.5761 51.5098 56.0375 51.3982 57.4929C51.2476 57.3747 51.2213 57.1973 51.0444 57.155ZM51.3603 52.4279C51.2339 52.2928 51.117 52.1714 51.0054 52.0468C41.8243 41.8274 32.6404 31.6101 23.4537 21.395C23.1377 21.0445 23.1609 20.8977 23.5148 20.6031C31.463 13.9695 40.603 10.432 50.9349 9.99061C51.4477 9.96738 51.4446 10.1859 51.4446 10.5639C51.4382 24.3374 51.4354 38.1115 51.4361 51.8863C51.4361 52.0542 51.4909 52.2294 51.355 52.4279H51.3603ZM51.3119 58.3334L51.434 58.3725V99.3104C51.4266 99.4159 51.4266 99.5217 51.434 99.6272C51.4825 99.9714 51.3182 100.032 51.0128 100.017C48.9271 99.9371 46.8488 99.7219 44.791 99.3727C36.7304 97.9368 29.5755 94.5654 23.3263 89.2586C22.945 88.9355 22.905 88.7655 23.2641 88.3844C31.3823 79.7108 39.4906 71.0294 47.5891 62.3404C48.8339 61.0065 50.0748 59.6708 51.3119 58.3334Z" fill="#05012B"/>
<path d="M51.3884 109.926V109.663C51.3884 108.824 51.3884 108.824 50.6512 108.607C45.5667 108.164 40.6234 107.091 35.8496 105.263C29.2076 102.72 23.3112 98.9841 18.1266 94.1124C17.896 93.8062 17.5264 93.6225 17.3684 93.2518C17.1673 93.2413 17.0725 93.0745 16.9524 92.9541C12.7214 88.7023 9.23269 83.7682 6.63184 78.3578C3.91964 72.7323 2.21773 66.6714 1.60424 60.4535C1.44101 58.8454 1.2999 57.231 1.38309 55.6092C1.38309 55.2439 1.38309 54.8796 1.37572 54.5143C1.3336 51.9063 1.58634 49.3205 1.98547 46.7473C3.24922 38.6225 6.24008 31.1923 10.9033 24.4327C12.8737 21.5819 15.1326 18.9686 17.5853 16.5222C17.6021 16.4732 17.6298 16.4287 17.6663 16.3921C17.7028 16.3555 17.7471 16.3278 17.796 16.311L18.4278 15.783C18.5331 15.6701 18.6385 15.5518 18.7554 15.4462C22.3119 12.1812 26.2909 9.41138 30.5851 7.21154C36.9628 3.94469 43.729 2.0906 50.8618 1.5067C51.3631 1.46236 51.4516 1.14876 51.3884 0.717972C51.3751 0.542248 51.3751 0.365764 51.3884 0.190039C50.4406 0.114017 49.5096 0.288235 48.5787 0.39171C46.7364 0.598804 44.9066 0.905096 43.0972 1.30926C37.6731 2.51197 32.4625 4.53341 27.6437 7.30446C23.9184 9.45557 20.4489 12.0241 17.3021 14.9605C17.262 14.9917 17.2198 15.0199 17.1757 15.045L16.6386 15.5729C15.8667 16.4799 14.981 17.2782 14.1848 18.164C11.6853 20.9496 9.46944 23.9784 7.57017 27.2054C5.39033 30.9142 3.65372 34.8675 2.39619 38.9836C1.56454 41.6959 0.947605 44.4698 0.551125 47.2795C0.305748 48.99 0.155155 50.7142 0.0803833 52.4532C0.0235138 53.7709 -0.024929 55.0876 0.0129814 56.4032C0.388947 68.7241 4.33077 79.7695 12.008 89.4011C19.2967 98.5291 28.5852 104.719 39.7967 107.984C42.7562 108.855 45.7905 109.447 48.8599 109.752C49.5644 109.82 50.2668 109.904 50.9661 109.98L51.3884 109.926Z" fill="#05012B"/>
<path d="M51.2777 55.8151C51.6558 56.3431 51.3651 56.7517 51.0439 57.155C51.2209 57.1973 51.2472 57.3746 51.3978 57.4929C51.5093 56.0375 51.5178 54.5761 51.4231 53.1195C51.2451 53.3845 51.2914 53.6031 51.1008 53.6781C51.343 54.0371 51.66 54.3844 51.284 54.8395C51.1177 55.1647 51.3114 55.491 51.2777 55.8151Z" fill="#140B37"/>
<path d="M1.38356 55.6092L1.67949 55.5902L1.57418 55.4783C1.51415 55.1679 1.17715 54.7856 1.7848 54.6537L2.0902 54.6621C3.39291 54.6621 4.69562 54.6621 5.99728 54.6452C6.16894 54.6452 6.39009 54.7508 6.50488 54.5101H1.36566C1.37829 54.8796 1.38146 55.2439 1.38356 55.6092Z" fill="#4F4868"/>
<path d="M18.0095 92.5666C17.8042 92.6331 17.7199 92.8263 17.5883 92.971C17.5756 93.4102 17.9516 93.5591 18.2044 93.7998C18.296 93.708 18.4403 93.6626 18.4561 93.5053C18.2444 93.2233 17.6704 93.1146 18.0095 92.5666Z" fill="#221A42"/>
<path d="M2.10111 54.6621L1.79571 54.6536C1.72409 54.9282 1.85573 55.2565 1.58508 55.4783L1.69039 55.5902L2.32227 55.5796C2.09374 55.3093 2.25171 54.9503 2.10111 54.6621Z" fill="#110934"/>
<path d="M17.5856 16.5221C17.7899 16.5306 17.8089 16.804 18.0069 16.8188L18.7588 16.1916L18.5566 15.9805C18.2712 16.0174 18.2143 16.5813 17.7962 16.312C17.7475 16.3287 17.7032 16.3563 17.6667 16.3927C17.6303 16.4291 17.6025 16.4734 17.5856 16.5221Z" fill="#130A36"/>
<path d="M18.2061 93.7999C17.9533 93.5591 17.5742 93.4102 17.59 92.971C17.5293 92.99 17.4758 93.0268 17.4363 93.0767C17.3969 93.1266 17.3734 93.1873 17.3688 93.2508C17.5268 93.6214 17.8954 93.8051 18.1271 94.1113L18.2061 93.7999Z" fill="#635C79"/>
<path d="M17.7973 16.3078C18.2185 16.577 18.2722 16.0132 18.5576 15.9763L18.426 15.7788L17.7973 16.3078Z" fill="#231943"/>
<path d="M1.57942 55.4783C1.85533 55.2565 1.72369 54.9282 1.79004 54.6536C1.18344 54.7856 1.51939 55.1678 1.57942 55.4783Z" fill="#2E264D"/>
</svg>
