<svg width="53" height="110" viewBox="0 0 53 110" fill="none" xmlns="http://www.w3.org/2000/svg">
<path d="M0.457031 109.897C0.54444 109.712 0.500209 109.515 0.500209 109.324C0.500209 92.1313 0.500209 74.9386 0.500209 57.7463C0.500209 57.5542 0.479147 57.362 0.467562 57.1698C0.517059 56.0084 0.509687 54.8469 0.467562 53.6855C0.4802 53.4585 0.503368 53.2314 0.503368 53.0044C0.503368 35.5848 0.506528 18.1648 0.512846 0.744405C0.512846 0.519506 0.358038 0.152065 0.618159 0.0887126C0.918298 0.0169138 1.30479 -0.103455 1.59967 0.194299C1.61298 0.370023 1.61298 0.546507 1.59967 0.722232C1.54175 1.15302 1.63021 1.46662 2.12623 1.51096C1.63969 1.42016 1.53227 1.6345 1.53859 2.10225C1.56386 4.19356 1.56386 6.28558 1.53859 8.37831C1.53859 8.80065 1.61336 8.9358 2.06515 8.94636C4.1845 8.99904 6.29681 9.21294 8.38387 9.58622C16.5982 11.0511 23.8883 14.4858 30.254 19.8904C30.5699 20.1607 30.6974 20.1016 30.9438 19.8239C32.0222 18.6012 33.128 17.4028 34.2243 16.1959L34.9762 16.8231C34.8404 17.0005 34.715 17.1874 34.5676 17.351C33.6198 18.4122 32.672 19.4786 31.7084 20.5186C31.4525 20.7942 31.4356 20.9294 31.7326 21.2039C35.6896 24.8537 38.9681 29.1796 41.415 33.9799C44.7112 40.4206 46.3646 47.2721 46.47 54.5038C46.5847 54.7477 46.8059 54.6368 46.9776 54.6389C48.2792 54.6526 49.5819 54.6516 50.8846 54.6558C50.734 54.9441 50.892 55.3031 50.674 55.5734C49.4608 55.5871 48.2518 55.6135 47.0334 55.605C46.6206 55.605 46.4478 55.6631 46.4415 56.1615C46.4171 58.6253 46.1718 61.082 45.7085 63.5018C43.8129 73.3425 39.2333 81.7106 31.9695 88.6061C31.6905 88.8722 31.7178 89.0031 31.9622 89.2628C32.9869 90.3514 33.9863 91.4633 34.9952 92.5666C35.3343 93.1146 34.7614 93.2234 34.5465 93.5053C34.5118 93.5 34.4633 93.5053 34.4412 93.4895C33.3681 92.328 32.2907 91.1666 31.2313 89.9924C30.9733 89.7063 30.8101 89.6567 30.4857 89.9365C22.2812 96.9432 12.7919 100.654 2.01775 101.07C1.59651 101.086 1.55122 101.232 1.55438 101.589C1.56913 103.665 1.5607 105.742 1.5607 107.819C1.5607 108.602 1.5607 108.602 2.34843 108.607C1.61125 108.825 1.61125 108.825 1.61125 109.663V109.926C1.2237 110.006 0.837208 110.051 0.457031 109.897ZM1.95562 57.155C2.10727 57.2986 2.27156 57.4327 2.41057 57.5858C8.64223 64.2603 14.8725 70.9358 21.1013 77.6124C24.2396 80.9764 27.3734 84.3436 30.5025 87.7139C30.8185 88.0507 30.9954 88.0919 31.345 87.7456C32.3918 86.7045 33.4344 85.6602 34.3991 84.5389C41.3908 76.3697 45.0356 66.8975 45.4116 56.1467C45.4253 55.7465 45.3515 55.6304 44.9103 55.6335C37.8193 55.6863 30.7283 55.7236 23.6373 55.7455C16.3307 55.7687 9.02522 55.8711 1.71972 55.8151C1.69024 55.491 1.8798 55.1647 1.7134 54.8416C1.81497 54.8223 1.9177 54.8096 2.02091 54.8036C3.74487 54.7931 5.46883 54.7878 7.19173 54.7783C19.7716 54.7079 32.3515 54.6435 44.9313 54.5851C45.341 54.5851 45.4242 54.4795 45.4126 54.0983C45.3537 51.4251 45.0612 48.7622 44.5385 46.1403C42.5952 36.6818 38.112 28.6442 31.0891 22.0275C30.7732 21.7244 30.6331 21.7339 30.3414 22.0591C22.1671 31.179 13.9851 40.2911 5.7953 49.3955C4.50522 50.8304 3.1983 52.2463 1.89875 53.6781C1.70814 53.6031 1.75448 53.3845 1.5765 53.1195C1.48178 54.5761 1.49023 56.0376 1.60177 57.4929C1.75237 57.3747 1.7787 57.1973 1.95562 57.155ZM1.63969 52.4279C1.76606 52.2928 1.88296 52.1714 1.99459 52.0468C11.1757 41.8274 20.3596 31.6101 29.5463 21.395C29.8623 21.0445 29.8391 20.8977 29.4852 20.6031C21.537 13.9695 12.397 10.432 2.06515 9.99061C1.55228 9.96738 1.55544 10.1859 1.55544 10.5639C1.56175 24.3374 1.56456 38.1115 1.56386 51.8863C1.56386 52.0542 1.5091 52.2294 1.64495 52.4279H1.63969ZM1.68813 58.3334L1.56597 58.3725V99.3104C1.5734 99.4159 1.5734 99.5218 1.56597 99.6272C1.51752 99.9714 1.68181 100.032 1.98721 100.017C4.07286 99.9371 6.15115 99.7219 8.20905 99.3727C16.2696 97.9368 23.4245 94.5654 29.6737 89.2586C30.055 88.9355 30.095 88.7655 29.7359 88.3844C21.6177 79.7108 13.5094 71.0295 5.41091 62.3404C4.16612 61.0065 2.92519 59.6708 1.68813 58.3334Z" fill="#05012B"/>
<path d="M1.61161 109.926V109.663C1.61161 108.824 1.61161 108.824 2.34879 108.607C7.43326 108.164 12.3766 107.091 17.1504 105.263C23.7924 102.72 29.6888 98.9841 34.8734 94.1124C35.104 93.8062 35.4736 93.6225 35.6316 93.2518C35.8327 93.2413 35.9275 93.0745 36.0476 92.9541C40.2786 88.7023 43.7673 83.7682 46.3682 78.3578C49.0804 72.7323 50.7823 66.6715 51.3958 60.4535C51.559 58.8454 51.7001 57.231 51.6169 55.6092C51.6169 55.2439 51.6169 54.8796 51.6243 54.5143C51.6664 51.9063 51.4137 49.3205 51.0145 46.7473C49.7508 38.6225 46.7599 31.1923 42.0967 24.4327C40.1263 21.5819 37.8674 18.9686 35.4147 16.5222C35.3979 16.4732 35.3702 16.4287 35.3337 16.3921C35.2972 16.3555 35.2529 16.3278 35.204 16.311L34.5722 15.7831C34.4669 15.6701 34.3615 15.5518 34.2446 15.4462C30.6881 12.1812 26.7091 9.41138 22.4149 7.21154C16.0372 3.94469 9.27095 2.0906 2.13817 1.5067C1.63688 1.46236 1.54842 1.14876 1.61161 0.717972C1.62492 0.542248 1.62492 0.365764 1.61161 0.190039C2.55942 0.114017 3.49037 0.288235 4.42133 0.39171C6.26358 0.598805 8.09339 0.905096 9.90282 1.30926C15.3269 2.51197 20.5375 4.53341 25.3563 7.30446C29.0816 9.45557 32.5511 12.0241 35.6979 14.9605C35.738 14.9917 35.7802 15.0199 35.8243 15.045L36.3614 15.5729C37.1333 16.4799 38.019 17.2782 38.8152 18.164C41.3147 20.9496 43.5306 23.9784 45.4298 27.2054C47.6097 30.9142 49.3463 34.8675 50.6038 38.9836C51.4355 41.6959 52.0524 44.4698 52.4489 47.2795C52.6943 48.99 52.8448 50.7142 52.9196 52.4532C52.9765 53.771 53.0249 55.0876 52.987 56.4032C52.6111 68.7241 48.6692 79.7695 40.992 89.4011C33.7033 98.5291 24.4148 104.719 13.2033 107.984C10.2438 108.855 7.20952 109.447 4.14015 109.752C3.43561 109.82 2.73318 109.904 2.03391 109.98L1.61161 109.926Z" fill="#05012B"/>
<path d="M1.72228 55.8151C1.34421 56.3431 1.63487 56.7517 1.95607 57.155C1.77914 57.1973 1.75282 57.3746 1.60222 57.4929C1.49068 56.0375 1.48223 54.5761 1.57695 53.1195C1.75492 53.3845 1.70858 53.6031 1.8992 53.6781C1.65698 54.0371 1.33999 54.3844 1.71596 54.8395C1.88235 55.1647 1.68858 55.491 1.72228 55.8151Z" fill="#140B37"/>
<path d="M51.6164 55.6092L51.3205 55.5902L51.4258 55.4783C51.4859 55.1679 51.8228 54.7856 51.2152 54.6537L50.9098 54.6621C49.6071 54.6621 48.3044 54.6621 47.0027 54.6452C46.8311 54.6452 46.6099 54.7508 46.4951 54.5101H51.6343C51.6217 54.8796 51.6185 55.2439 51.6164 55.6092Z" fill="#4F4868"/>
<path d="M34.9905 92.5666C35.1958 92.6331 35.2801 92.8263 35.4117 92.971C35.4244 93.4102 35.0484 93.5591 34.7956 93.7998C34.704 93.708 34.5597 93.6626 34.5439 93.5053C34.7556 93.2233 35.3296 93.1146 34.9905 92.5666Z" fill="#221A42"/>
<path d="M50.8989 54.6621L51.2043 54.6537C51.2759 54.9282 51.1443 55.2566 51.4149 55.4783L51.3096 55.5902L50.6777 55.5797C50.9063 55.3094 50.7483 54.9504 50.8989 54.6621Z" fill="#110934"/>
<path d="M35.4144 16.5222C35.2101 16.5306 35.1911 16.8041 34.9931 16.8189L34.2412 16.1917L34.4434 15.9805C34.7288 16.0175 34.7857 16.5813 35.2038 16.3121C35.2525 16.3288 35.2968 16.3564 35.3333 16.3928C35.3697 16.4292 35.3975 16.4734 35.4144 16.5222Z" fill="#130A36"/>
<path d="M34.7939 93.7999C35.0467 93.5591 35.4258 93.4102 35.41 92.971C35.4707 92.99 35.5242 93.0268 35.5637 93.0767C35.6031 93.1266 35.6266 93.1873 35.6312 93.2508C35.4732 93.6214 35.1046 93.8051 34.8729 94.1113L34.7939 93.7999Z" fill="#635C79"/>
<path d="M35.2027 16.3078C34.7815 16.577 34.7278 16.0132 34.4424 15.9763L34.574 15.7788L35.2027 16.3078Z" fill="#231943"/>
<path d="M51.4206 55.4783C51.1447 55.2566 51.2763 54.9282 51.21 54.6537C51.8166 54.7857 51.4806 55.1679 51.4206 55.4783Z" fill="#2E264D"/>
</svg>
