<svg width="53" height="110" viewBox="0 0 53 110" fill="none" xmlns="http://www.w3.org/2000/svg">
<path d="M0.456543 109.897C0.543952 109.712 0.499721 109.515 0.499721 109.324C0.499721 92.1313 0.499721 74.9386 0.499721 57.7463C0.499721 57.5542 0.478658 57.362 0.467074 57.1698C0.516571 56.0084 0.509199 54.8469 0.467074 53.6855C0.479711 53.4585 0.50288 53.2314 0.50288 53.0044C0.50288 35.5848 0.506039 18.1648 0.512358 0.744405C0.512358 0.519506 0.35755 0.152065 0.61767 0.0887126C0.917809 0.0169138 1.3043 -0.103455 1.59918 0.194299C1.61249 0.370023 1.61249 0.546507 1.59918 0.722232C1.54126 1.15302 1.62972 1.46662 2.12574 1.51096C1.6392 1.42016 1.53178 1.6345 1.5381 2.10225C1.56337 4.19356 1.56337 6.28558 1.5381 8.37831C1.5381 8.80065 1.61287 8.9358 2.06466 8.94636C4.18401 8.99904 6.29632 9.21294 8.38338 9.58622C16.5977 11.0511 23.8878 14.4858 30.2535 19.8904C30.5695 20.1607 30.6969 20.1016 30.9433 19.8239C32.0217 18.6012 33.1275 17.4028 34.2238 16.1959L34.9757 16.8231C34.8399 17.0005 34.7145 17.1874 34.5671 17.351C33.6193 18.4122 32.6715 19.4786 31.7079 20.5186C31.452 20.7942 31.4351 20.9294 31.7321 21.2039C35.6891 24.8537 38.9676 29.1796 41.4145 33.9799C44.7108 40.4206 46.3642 47.2721 46.4695 54.5038C46.5843 54.7477 46.8054 54.6368 46.9771 54.6389C48.2787 54.6526 49.5814 54.6516 50.8842 54.6558C50.7336 54.9441 50.8915 55.3031 50.6735 55.5734C49.4603 55.5871 48.2513 55.6135 47.0329 55.605C46.6201 55.605 46.4473 55.6631 46.441 56.1615C46.4166 58.6253 46.1713 61.082 45.7081 63.5018C43.8124 73.3425 39.2328 81.7106 31.9691 88.6061C31.69 88.8722 31.7174 89.0031 31.9617 89.2628C32.9864 90.3514 33.9858 91.4633 34.9947 92.5666C35.3338 93.1146 34.7609 93.2234 34.546 93.5053C34.5113 93.5 34.4628 93.5053 34.4407 93.4895C33.3676 92.328 32.2903 91.1666 31.2308 89.9924C30.9728 89.7063 30.8096 89.6567 30.4852 89.9365C22.2807 96.9432 12.7914 100.654 2.01727 101.07C1.59602 101.086 1.55073 101.232 1.55389 101.589C1.56864 103.665 1.56021 105.742 1.56021 107.819C1.56021 108.602 1.56021 108.602 2.34795 108.607C1.61076 108.825 1.61076 108.825 1.61076 109.663V109.926C1.22321 110.006 0.836719 110.051 0.456543 109.897ZM1.95513 57.155C2.10678 57.2986 2.27107 57.4327 2.41008 57.5858C8.64174 64.2603 14.872 70.9358 21.1009 77.6124C24.2392 80.9764 27.3729 84.3436 30.5021 87.7139C30.818 88.0507 30.9949 88.0919 31.3446 87.7456C32.3914 86.7045 33.4339 85.6602 34.3986 84.5389C41.3903 76.3697 45.0351 66.8975 45.4111 56.1467C45.4248 55.7465 45.3511 55.6304 44.9098 55.6335C37.8188 55.6863 30.7278 55.7236 23.6368 55.7455C16.3302 55.7687 9.02473 55.8711 1.71923 55.8151C1.68975 55.491 1.87931 55.1647 1.71291 54.8416C1.81449 54.8223 1.91721 54.8096 2.02043 54.8036C3.74438 54.7931 5.46834 54.7878 7.19125 54.7783C19.7711 54.7079 32.351 54.6435 44.9309 54.5851C45.3405 54.5851 45.4237 54.4795 45.4121 54.0983C45.3532 51.4251 45.0607 48.7622 44.538 46.1403C42.5947 36.6818 38.1116 28.6442 31.0886 22.0275C30.7727 21.7244 30.6326 21.7339 30.3409 22.0591C22.1666 31.179 13.9846 40.2911 5.79481 49.3955C4.50474 50.8304 3.19781 52.2463 1.89826 53.6781C1.70765 53.6031 1.75399 53.3845 1.57601 53.1195C1.48129 54.5761 1.48974 56.0376 1.60128 57.4929C1.75188 57.3747 1.77821 57.1973 1.95513 57.155ZM1.6392 52.4279C1.76557 52.2928 1.88247 52.1714 1.9941 52.0468C11.1752 41.8274 20.3591 31.6101 29.5458 21.395C29.8618 21.0445 29.8386 20.8977 29.4847 20.6031C21.5365 13.9695 12.3965 10.432 2.06466 9.99061C1.55179 9.96738 1.55495 10.1859 1.55495 10.5639C1.56127 24.3374 1.56407 38.1115 1.56337 51.8863C1.56337 52.0542 1.50861 52.2294 1.64446 52.4279H1.6392ZM1.68764 58.3334L1.56548 58.3725V99.3104C1.57291 99.4159 1.57291 99.5218 1.56548 99.6272C1.51703 99.9714 1.68132 100.032 1.98673 100.017C4.07237 99.9371 6.15066 99.7219 8.20856 99.3727C16.2691 97.9368 23.424 94.5654 29.6733 89.2586C30.0545 88.9355 30.0945 88.7655 29.7354 88.3844C21.6172 79.7108 13.5089 71.0295 5.41042 62.3404C4.16563 61.0065 2.92471 59.6708 1.68764 58.3334Z" fill="#05012B"/>
<path d="M1.61063 109.926V109.663C1.61063 108.824 1.61063 108.824 2.34782 108.607C7.43228 108.164 12.3756 107.091 17.1494 105.263C23.7914 102.72 29.6879 98.9841 34.8724 94.1124C35.103 93.8062 35.4727 93.6225 35.6306 93.2518C35.8318 93.2413 35.9266 93.0745 36.0466 92.9541C40.2776 88.7023 43.7663 83.7682 46.3672 78.3578C49.0794 72.7323 50.7813 66.6715 51.3948 60.4535C51.558 58.8454 51.6991 57.231 51.6159 55.6092C51.6159 55.2439 51.6159 54.8796 51.6233 54.5143C51.6654 51.9063 51.4127 49.3205 51.0135 46.7473C49.7498 38.6225 46.7589 31.1923 42.0957 24.4327C40.1253 21.5819 37.8664 18.9686 35.4137 16.5222C35.3969 16.4732 35.3692 16.4287 35.3327 16.3921C35.2962 16.3555 35.2519 16.3278 35.2031 16.311L34.5712 15.7831C34.4659 15.6701 34.3606 15.5518 34.2437 15.4462C30.6871 12.1812 26.7081 9.41138 22.414 7.21154C16.0363 3.94469 9.26997 2.0906 2.13719 1.5067C1.63591 1.46236 1.54744 1.14876 1.61063 0.717972C1.62395 0.542248 1.62395 0.365764 1.61063 0.190039C2.55844 0.114017 3.4894 0.288235 4.42036 0.39171C6.26261 0.598805 8.09241 0.905096 9.90185 1.30926C15.326 2.51197 20.5365 4.53341 25.3553 7.30446C29.0806 9.45557 32.5501 12.0241 35.697 14.9605C35.737 14.9917 35.7792 15.0199 35.8233 15.045L36.3604 15.5729C37.1324 16.4799 38.018 17.2782 38.8142 18.164C41.3137 20.9496 43.5296 23.9784 45.4289 27.2054C47.6087 30.9142 49.3453 34.8675 50.6028 38.9836C51.4345 41.6959 52.0514 44.4698 52.4479 47.2795C52.6933 48.99 52.8439 50.7142 52.9186 52.4532C52.9755 53.771 53.024 55.0876 52.986 56.4032C52.6101 68.7241 48.6683 79.7695 40.991 89.4011C33.7024 98.5291 24.4138 104.719 13.2023 107.984C10.2428 108.855 7.20854 109.447 4.13917 109.752C3.43464 109.82 2.7322 109.904 2.03293 109.98L1.61063 109.926Z" fill="#05012B"/>
<path d="M1.7213 55.8151C1.34323 56.3431 1.63389 56.7517 1.95509 57.155C1.77817 57.1973 1.75184 57.3746 1.60124 57.4929C1.4897 56.0375 1.48125 54.5761 1.57597 53.1195C1.75395 53.3845 1.70761 53.6031 1.89822 53.6781C1.65601 54.0371 1.33902 54.3844 1.71498 54.8395C1.88137 55.1647 1.6876 55.491 1.7213 55.8151Z" fill="#140B37"/>
<path d="M51.6159 55.6092L51.32 55.5902L51.4253 55.4783C51.4854 55.1679 51.8224 54.7856 51.2147 54.6537L50.9093 54.6621C49.6066 54.6621 48.3039 54.6621 47.0022 54.6452C46.8306 54.6452 46.6094 54.7508 46.4946 54.5101H51.6339C51.6212 54.8796 51.6181 55.2439 51.6159 55.6092Z" fill="#4F4868"/>
<path d="M34.9905 92.5666C35.1958 92.6331 35.2801 92.8263 35.4117 92.971C35.4244 93.4102 35.0484 93.5591 34.7956 93.7998C34.704 93.708 34.5597 93.6626 34.5439 93.5053C34.7556 93.2233 35.3296 93.1146 34.9905 92.5666Z" fill="#221A42"/>
<path d="M50.8989 54.6621L51.2043 54.6537C51.2759 54.9282 51.1443 55.2566 51.4149 55.4783L51.3096 55.5902L50.6777 55.5797C50.9063 55.3094 50.7483 54.9504 50.8989 54.6621Z" fill="#110934"/>
<path d="M35.4139 16.5222C35.2096 16.5306 35.1906 16.8041 34.9927 16.8189L34.2407 16.1917L34.4429 15.9805C34.7283 16.0175 34.7852 16.5813 35.2033 16.3121C35.252 16.3288 35.2963 16.3564 35.3328 16.3928C35.3693 16.4292 35.397 16.4734 35.4139 16.5222Z" fill="#130A36"/>
<path d="M34.7935 93.7999C35.0462 93.5591 35.4253 93.4102 35.4095 92.971C35.4702 92.99 35.5237 93.0268 35.5632 93.0767C35.6026 93.1266 35.6262 93.1873 35.6307 93.2508C35.4727 93.6214 35.1041 93.8051 34.8724 94.1113L34.7935 93.7999Z" fill="#635C79"/>
<path d="M35.2022 16.3078C34.781 16.577 34.7273 16.0132 34.4419 15.9763L34.5735 15.7788L35.2022 16.3078Z" fill="#231943"/>
<path d="M51.4201 55.4783C51.1442 55.2566 51.2758 54.9282 51.2095 54.6537C51.8161 54.7857 51.4801 55.1679 51.4201 55.4783Z" fill="#2E264D"/>
</svg>
